<svg xmlns="http://www.w3.org/2000/svg" width="738" height="657" viewBox="0 0 738 657" fill="none"><g clip-path="url(#clip0_226_7)"><path d="M609.052 111.737L574.583 379.751H489.229C478.128 379.751 469.065 376.952 472.886 360.374L479.875 333.98L496.727 270.321C500.804 254.47 501.277 241.709 497.965 231.929L519.367 137.95L390.663 174.996L385.312 205.717L227.671 205.68L254.46 -9L107.921 33.318L86.4823 205.68H15.8697L0 337.252H70.5763L52.9231 473.658C40.5841 575.89 71.4498 657 182.683 657C230.328 657 263.851 642.894 288.566 625.261L259.447 516.849C211.802 544.188 187.087 530.082 195.896 463.079L211.802 337.252L410.973 336.961C450.247 336.961 464.879 344.668 470.12 351.249C473.323 355.284 473.105 358.992 472.886 360.301C472.668 360.119 465.862 354.884 440.128 354.666C422.948 354.557 397.36 356.702 359.579 364.118C353.609 365.318 347.276 366.663 340.652 368.118C331.952 420.106 337.303 479.948 433.394 479.948L561.735 482.565L562.026 480.457L561.771 482.602L542.08 642.894H673.477L745 72.4731L609.052 111.737Z" fill="url(#paint0_linear_226_7)" fill-opacity="0.05"></path></g><defs><linearGradient id="paint0_linear_226_7" x1="25.0245" y1="394.798" x2="769.565" y2="262.44" gradientUnits="userSpaceOnUse"><stop stop-color="#25FD1E"></stop><stop offset="0.1553" stop-color="#1EFC43"></stop><stop offset="0.5231" stop-color="#0EFB97"></stop><stop offset="0.7833" stop-color="#04F9CC"></stop><stop offset="0.9099" stop-color="#00F9E0"></stop></linearGradient><clipPath id="clip0_226_7"><rect width="738" height="657" fill="white"></rect></clipPath></defs></svg>