<svg width="61" height="70" viewBox="0 0 61 70" fill="none" xmlns="http://www.w3.org/2000/svg">
<path d="M11.4242 11.6108H51.6665C52.5954 11.6108 53.5144 11.8014 54.3667 12.1707C55.219 12.54 55.9865 13.0802 56.6217 13.7579C57.2569 14.4357 57.7463 15.2365 58.0597 16.1109C58.373 16.9853 58.5037 17.9147 58.4436 18.8416L55.851 58.7123C55.7389 60.4334 54.9761 62.0474 53.7175 63.2267C52.4589 64.4059 50.7987 65.0621 49.0739 65.0621H14.0167C12.292 65.0621 10.6318 64.4059 9.37316 63.2267C8.11453 62.0474 7.35174 60.4334 7.23961 58.7123L4.64705 18.8416C4.58694 17.9148 4.71758 16.9855 5.0309 16.1111C5.34422 15.2368 5.83355 14.436 6.46865 13.7583C7.10375 13.0806 7.87111 12.5403 8.72329 12.171C9.57547 11.8016 10.4944 11.611 11.4231 11.6108H11.4242Z" fill="url(#paint0_linear_222_61)" stroke="url(#paint1_linear_222_61)" stroke-width="0.433"/>
<path fill-rule="evenodd" clip-rule="evenodd" d="M14.2629 5.32588C14.6391 3.80562 15.5137 2.45515 16.7469 1.48986C17.9802 0.524565 19.5012 5.98373e-05 21.0673 0L54.7655 0L46.6334 32.8596H7.44629L14.2619 5.32588H14.2629Z" fill="white"/>
<path fill-rule="evenodd" clip-rule="evenodd" d="M23.0679 7.88623H45.85L44.6955 12.2683H21.9114L23.0659 7.88623H23.0679ZM20.8713 16.2108H36.2049L35.0494 20.5918H19.7158L20.8703 16.2108H20.8713Z" fill="#E0E0E0"/>
<path fill-rule="evenodd" clip-rule="evenodd" d="M1.00621 26.3773C0.933574 25.4149 1.06043 24.4479 1.37883 23.5369C1.69723 22.6258 2.20031 21.7903 2.85658 21.0827C3.51284 20.3751 4.30815 19.8107 5.19268 19.4247C6.07721 19.0387 7.03192 18.8395 7.997 18.8396H21.9269C23.8693 18.8396 25.7246 19.6457 27.0513 21.0666L35.1621 29.7557C35.8179 30.4585 36.6112 31.019 37.4927 31.4023C38.3743 31.7856 39.3252 31.9835 40.2865 31.9837H53.9885C58.1508 31.9837 61.3956 35.5889 60.9601 39.7269L58.9306 59.005C58.7492 60.7275 57.9365 62.3219 56.6492 63.4807C55.3619 64.6396 53.6911 65.2808 51.9591 65.2808H10.4437C6.77668 65.2808 3.72941 62.4553 3.45395 58.7984L1.00621 26.3773Z" fill="url(#paint2_linear_222_61)"/>
<path d="M7.9973 19.0594H21.9272C23.8089 19.0594 25.6074 19.8392 26.8916 21.2165L35.0024 29.9056C35.6787 30.6303 36.4968 31.2081 37.4059 31.6032C38.3149 31.9984 39.2956 32.2023 40.2868 32.2024H53.9888C58.0205 32.2024 61.165 35.6943 60.7427 39.7046L58.7132 58.9807C58.5375 60.6495 57.7502 62.1942 56.5031 63.317C55.256 64.4397 53.6374 65.061 51.9594 65.061H10.444C8.73139 65.061 7.08198 64.414 5.82619 63.2495C4.5704 62.0849 3.80096 60.4889 3.67199 58.7812L1.22526 26.36C1.155 25.4278 1.27796 24.4912 1.58644 23.6087C1.89491 22.7262 2.38227 21.9169 3.01798 21.2315C3.65369 20.546 4.42406 19.9992 5.28087 19.6253C6.13767 19.2514 7.06245 19.0584 7.9973 19.0583V19.0594Z" stroke="url(#paint3_radial_222_61)" stroke-width="0.433"/>
<path d="M21.4683 24.9736H9.20027C7.99049 24.9736 7.00977 25.9544 7.00977 27.1641C7.00977 28.3739 7.99049 29.3546 9.20027 29.3546H21.4683C22.6781 29.3546 23.6588 28.3739 23.6588 27.1641C23.6588 25.9544 22.6781 24.9736 21.4683 24.9736Z" fill="white"/>
<path d="M11.3921 53.4512H4.38101C1.96145 53.4512 0 55.4126 0 57.8322V64.8432C0 67.2628 1.96145 69.2242 4.38101 69.2242H11.3921C13.8116 69.2242 15.7731 67.2628 15.7731 64.8432V57.8322C15.7731 55.4126 13.8116 53.4512 11.3921 53.4512Z" fill="url(#paint4_radial_222_61)"/>
<path d="M8.76177 58.7083C8.76177 58.2245 8.36957 57.8323 7.88577 57.8323C7.40196 57.8323 7.00977 58.2245 7.00977 58.7083V63.9663C7.00977 64.4501 7.40196 64.8423 7.88577 64.8423C8.36957 64.8423 8.76177 64.4501 8.76177 63.9663V58.7083Z" fill="white"/>
<path d="M10.5146 62.2132C10.9984 62.2132 11.3906 61.821 11.3906 61.3372C11.3906 60.8534 10.9984 60.4612 10.5146 60.4612H5.25659C4.77279 60.4612 4.3806 60.8534 4.3806 61.3372C4.3806 61.821 4.77279 62.2132 5.25659 62.2132H10.5146Z" fill="white"/>
<defs>
<linearGradient id="paint0_linear_222_61" x1="3.94423" y1="4.37194" x2="-9.8024" y2="58.4227" gradientUnits="userSpaceOnUse">
<stop stop-color="#FFA9F2" stop-opacity="0.516"/>
<stop offset="0.225" stop-color="#FFE4B4" stop-opacity="0.463"/>
<stop offset="1" stop-color="#CCE2FF" stop-opacity="0.21"/>
</linearGradient>
<linearGradient id="paint1_linear_222_61" x1="-6.81893" y1="32.5204" x2="27.0625" y2="58.9412" gradientUnits="userSpaceOnUse">
<stop stop-color="white" stop-opacity="0.295"/>
<stop offset="1" stop-color="white" stop-opacity="0.01"/>
</linearGradient>
<linearGradient id="paint2_linear_222_61" x1="0.438078" y1="12.7906" x2="-8.97817" y2="60.5261" gradientUnits="userSpaceOnUse">
<stop stop-color="#FFA9F2" stop-opacity="0.516"/>
<stop offset="0.225" stop-color="#FFE4B4" stop-opacity="0.463"/>
<stop offset="1" stop-color="#CCE2FF" stop-opacity="0.21"/>
</linearGradient>
<radialGradient id="paint3_radial_222_61" cx="0" cy="0" r="1" gradientUnits="userSpaceOnUse" gradientTransform="translate(6.35468 23.3442) rotate(64.6838) scale(27.8729 51.3429)">
<stop stop-color="white" stop-opacity="0.973"/>
<stop offset="1" stop-color="white" stop-opacity="0.01"/>
</radialGradient>
<radialGradient id="paint4_radial_222_61" cx="0" cy="0" r="1" gradientUnits="userSpaceOnUse" gradientTransform="translate(6.91838 53.4507) rotate(81.115) scale(13.8251)">
<stop stop-color="#FF5555"/>
<stop offset="1" stop-color="#D800B9"/>
</radialGradient>
</defs>
</svg>
