<svg width="66" height="69" viewBox="0 0 66 69" fill="none" xmlns="http://www.w3.org/2000/svg">
<g filter="url(#filter0_i_222_62)">
<path fill-rule="evenodd" clip-rule="evenodd" d="M65.551 0.450401C65.7053 0.6047 65.8062 0.803373 65.8415 1.01919C66.2672 6.05497 65.8328 11.1265 64.5567 16.0165L50.1191 1.4236C54.9654 0.160989 59.9914 -0.266343 64.9812 0.159955C65.1971 0.194244 65.3967 0.296102 65.551 0.450401V0.450401ZM28.731 15.3952L14.7503 37.7454C14.625 37.9442 14.5711 38.1796 14.5973 38.4131C14.6235 38.6466 14.7283 38.8642 14.8945 39.0303L26.9712 51.107C27.0673 51.2048 27.1818 51.2826 27.3082 51.336C27.4345 51.3893 27.5702 51.417 27.7074 51.4176C27.9027 51.4187 28.0938 51.3611 28.256 51.2522L50.6788 37.2069C56.9999 32.474 61.6475 25.8492 63.9465 18.2947L47.8399 2.05491C40.2101 4.34902 33.5142 9.02358 28.731 15.3952V15.3952Z" fill="url(#paint0_linear_222_62)"/>
</g>
<g filter="url(#filter1_dii_222_62)">
<path fill-rule="evenodd" clip-rule="evenodd" d="M16.4144 38.2256C16.4185 38.2218 16.421 38.2166 16.4216 38.211C16.4221 38.2055 16.4207 38.1999 16.4174 38.1954C16.4147 38.1913 16.4133 38.1865 16.4135 38.1816C16.4137 38.1767 16.4154 38.172 16.4184 38.1681C16.5126 38.062 16.6277 37.9763 16.7564 37.9164C16.885 37.8566 17.0247 37.8238 17.1666 37.8202C17.3084 37.8165 17.4496 37.8421 17.5812 37.8953C17.7128 37.9484 17.832 38.0281 17.9316 38.1293C18.0311 38.2305 18.1087 38.351 18.1597 38.4835C18.2107 38.6159 18.2339 38.7575 18.2279 38.8993C18.2219 39.0411 18.1869 39.1801 18.1249 39.3078C18.0629 39.4355 17.9754 39.5491 17.8676 39.6415L15.5582 41.951C15.4673 42.0524 15.3572 42.1349 15.2343 42.1938C15.1115 42.2526 14.9782 42.2866 14.8422 42.2939C14.6372 42.293 14.4372 42.2313 14.2673 42.1167C14.0974 42.0021 13.9653 41.8397 13.8878 41.6499C13.8103 41.4602 13.7908 41.2518 13.8318 41.051C13.8728 40.8502 13.9724 40.6661 14.1181 40.5219L16.4144 38.2256V38.2256ZM5.32503 58.8856L12.45 51.7283C12.5466 51.6296 12.6616 51.551 12.7886 51.4967C12.9155 51.4425 13.0519 51.4139 13.1899 51.4124C13.328 51.4109 13.465 51.4366 13.5931 51.488C13.7212 51.5395 13.8379 51.6156 13.9365 51.7122C14.0352 51.8087 14.1139 51.9238 14.1681 52.0507C14.2223 52.1777 14.251 52.3141 14.2525 52.4521C14.254 52.5901 14.2283 52.7271 14.1768 52.8552C14.1254 52.9833 14.0492 53.1 13.9527 53.1987L6.78532 60.356C6.68997 60.4572 6.57524 60.5382 6.44796 60.5941C6.32067 60.6501 6.18342 60.6798 6.04439 60.6817C5.90536 60.6835 5.76738 60.6574 5.63866 60.6048C5.50994 60.5522 5.39311 60.4743 5.29513 60.3756C5.19715 60.2769 5.12002 60.1596 5.06832 60.0305C5.01662 59.9014 4.99142 59.7633 4.99421 59.6242C4.997 59.4852 5.02772 59.3482 5.08455 59.2213C5.14139 59.0944 5.22317 58.9802 5.32503 58.8856V58.8856ZM20.6238 44.2473C20.627 44.2518 20.6285 44.2573 20.6282 44.2628C20.6278 44.2683 20.6256 44.2735 20.6218 44.2776L18.3255 46.5739C18.1801 46.7182 18.0808 46.9023 18.04 47.103C17.9993 47.3037 18.0189 47.512 18.0965 47.7016C18.1741 47.8911 18.3062 48.0534 18.476 48.1679C18.6458 48.2824 18.8458 48.3439 19.0506 48.3448C19.3249 48.3297 19.5821 48.2067 19.7656 48.0019L22.0751 45.6925C22.2102 45.5758 22.313 45.4263 22.3735 45.2583C22.434 45.0903 22.4501 44.9096 22.4203 44.7335C22.3905 44.5575 22.3157 44.3921 22.2033 44.2534C22.0909 44.1147 21.9446 44.0074 21.7786 43.9417C21.5811 43.8647 21.3648 43.85 21.1587 43.8996C20.9526 43.9492 20.7667 44.0607 20.6259 44.2191C20.6226 44.223 20.6207 44.2279 20.6206 44.233C20.6204 44.2381 20.6219 44.2432 20.6249 44.2473H20.6238ZM26.109 47.9202C26.1127 47.9167 26.1175 47.9145 26.1226 47.9139C26.1278 47.9134 26.1329 47.9145 26.1373 47.9172C26.1474 47.9233 26.1574 47.9223 26.1665 47.9142C26.3656 47.7353 26.6262 47.6403 26.8937 47.6491C27.1613 47.6579 27.415 47.7699 27.6019 47.9616C27.7887 48.1532 27.8942 48.4098 27.8962 48.6775C27.8982 48.9451 27.7966 49.2032 27.6127 49.3977L25.3033 51.7071C25.1083 51.9008 24.8443 52.009 24.5695 52.0081C24.2947 52.0071 24.0316 51.8971 23.8379 51.7021C23.6443 51.5071 23.536 51.2432 23.537 50.9684C23.5379 50.6936 23.648 50.4304 23.843 50.2367L26.109 47.9202ZM19.338 54.7013L15.0822 58.9471C14.9846 59.0432 14.9072 59.1577 14.8543 59.284C14.8014 59.4103 14.7742 59.5459 14.7742 59.6828C14.7742 59.8197 14.8014 59.9553 14.8543 60.0816C14.9072 60.2079 14.9846 60.3224 15.0822 60.4185C15.1788 60.5143 15.2934 60.59 15.4194 60.6414C15.5454 60.6928 15.6803 60.7189 15.8164 60.718C15.9528 60.719 16.088 60.6931 16.2143 60.6417C16.3407 60.5903 16.4556 60.5144 16.5526 60.4185L20.7983 56.1616C20.9678 55.9635 21.0563 55.7087 21.0462 55.4481C21.036 55.1876 20.928 54.9404 20.7436 54.7561C20.5592 54.5717 20.3121 54.4636 20.0515 54.4535C19.791 54.4434 19.5362 54.5319 19.338 54.7013V54.7013ZM3.98373 50.1914L8.23957 45.9456C8.43751 45.7746 8.69281 45.6849 8.9542 45.6944C9.2156 45.7038 9.46372 45.8119 9.64874 45.9968C9.83375 46.1817 9.94196 46.4297 9.95164 46.6911C9.96131 46.9525 9.87172 47.2079 9.70087 47.4059L5.45411 51.6617C5.35733 51.7581 5.24247 51.8343 5.11612 51.886C4.98977 51.9378 4.85444 51.964 4.71791 51.9633C4.54703 51.9637 4.37869 51.9219 4.22785 51.8416C4.077 51.7613 3.94832 51.645 3.85324 51.503C3.75815 51.361 3.69959 51.1977 3.68277 51.0277C3.66595 50.8576 3.69139 50.6861 3.75682 50.5282C3.80926 50.4021 3.88591 50.2882 3.98373 50.1914V50.1914Z" fill="url(#paint1_linear_222_62)" fill-opacity="0.1"/>
</g>
<g filter="url(#filter2_i_222_62)">
<path fill-rule="evenodd" clip-rule="evenodd" d="M65.5501 0.45039C65.7044 0.604689 65.8063 0.803362 65.8405 1.01918C66.2663 6.05496 65.8318 11.1265 64.5557 16.0165L50.1181 1.42358C54.9644 0.160998 59.9904 -0.266335 64.9803 0.159944C65.1961 0.194233 65.3958 0.296091 65.5501 0.45039V0.45039ZM28.7301 15.3952L14.7483 37.7454C14.6231 37.9442 14.5691 38.1796 14.5953 38.4131C14.6215 38.6466 14.7263 38.8642 14.8925 39.0302L26.9692 51.1069C27.0653 51.2049 27.1798 51.2828 27.3062 51.3361C27.4325 51.3894 27.5683 51.4171 27.7054 51.4176C27.9007 51.4187 28.0919 51.361 28.254 51.2522L50.6769 37.2069C56.998 32.474 61.6456 25.8492 63.9446 18.2946L47.839 2.0549C40.2092 4.34901 33.5132 9.02357 28.7301 15.3952V15.3952Z" fill="url(#paint2_linear_222_62)"/>
</g>
<g filter="url(#filter3_iii_222_62)">
<path d="M32.5394 47.4509C32.3083 47.6466 32.137 47.9035 32.0453 48.1921C31.9536 48.4808 31.9452 48.7895 32.0211 49.0827C33.2474 54.0673 32.5879 59.3292 30.1695 63.8571C30.0448 64.0596 29.9935 64.2988 30.0244 64.5346C30.0552 64.7704 30.1663 64.9884 30.3389 65.152C30.514 65.3134 30.7394 65.4096 30.9771 65.4243C31.2147 65.439 31.4502 65.3713 31.6439 65.2326C37.7624 60.8447 50.5047 49.9923 48.6138 36.9142C48.4544 35.8129 47.1575 35.3934 46.2983 36.1014L32.5394 47.4509Z" fill="url(#paint3_linear_222_62)" fill-opacity="0.09"/>
<path d="M32.5394 47.4509C32.3083 47.6466 32.137 47.9035 32.0453 48.1921C31.9536 48.4808 31.9452 48.7895 32.0211 49.0827C33.2474 54.0673 32.5879 59.3292 30.1695 63.8571C30.0448 64.0596 29.9935 64.2988 30.0244 64.5346C30.0552 64.7704 30.1663 64.9884 30.3389 65.152C30.514 65.3134 30.7394 65.4096 30.9771 65.4243C31.2147 65.439 31.4502 65.3713 31.6439 65.2326C37.7624 60.8447 50.5047 49.9923 48.6138 36.9142C48.4544 35.8129 47.1575 35.3934 46.2983 36.1014L32.5394 47.4509Z" fill="#506943" fill-opacity="0.05"/>
</g>
<g filter="url(#filter4_iii_222_62)">
<path d="M19.0045 34.5302C18.6011 34.9972 17.9567 35.1726 17.3607 35.0113C12.4059 33.6702 7.1303 34.2079 2.54797 36.521C2.34292 36.641 2.10284 36.6868 1.868 36.6508C1.63316 36.6148 1.41783 36.4992 1.25811 36.3233C1.10083 36.1444 1.00995 35.9168 1.00077 35.6788C0.991588 35.4407 1.06466 35.2068 1.20769 35.0163C5.73582 29.0007 16.8776 16.5105 29.9094 18.7019C31.0066 18.8865 31.3959 20.1935 30.6688 21.0356L19.0045 34.5302Z" fill="url(#paint4_linear_222_62)" fill-opacity="0.09"/>
<path d="M19.0045 34.5302C18.6011 34.9972 17.9567 35.1726 17.3607 35.0113C12.4059 33.6702 7.1303 34.2079 2.54797 36.521C2.34292 36.641 2.10284 36.6868 1.868 36.6508C1.63316 36.6148 1.41783 36.4992 1.25811 36.3233C1.10083 36.1444 1.00995 35.9168 1.00077 35.6788C0.991588 35.4407 1.06466 35.2068 1.20769 35.0163C5.73582 29.0007 16.8776 16.5105 29.9094 18.7019C31.0066 18.8865 31.3959 20.1935 30.6688 21.0356L19.0045 34.5302Z" fill="#506943" fill-opacity="0.05"/>
</g>
<g filter="url(#filter5_dii_222_62)">
<path fill-rule="evenodd" clip-rule="evenodd" d="M16.4134 38.2256C16.4175 38.2218 16.42 38.2166 16.4206 38.211C16.4211 38.2055 16.4197 38.1999 16.4165 38.1954C16.4137 38.1913 16.4124 38.1865 16.4125 38.1816C16.4127 38.1767 16.4144 38.172 16.4175 38.1681C16.5117 38.062 16.6267 37.9763 16.7554 37.9164C16.8841 37.8566 17.0237 37.8238 17.1656 37.8202C17.3075 37.8165 17.4486 37.8421 17.5802 37.8953C17.7118 37.9484 17.831 38.0281 17.9306 38.1293C18.0301 38.2305 18.1078 38.351 18.1588 38.4835C18.2097 38.6159 18.233 38.7575 18.227 38.8993C18.221 39.0411 18.1859 39.1801 18.1239 39.3078C18.0619 39.4355 17.9744 39.5491 17.8667 39.6415L15.5572 41.951C15.4663 42.0524 15.3562 42.1349 15.2334 42.1938C15.1105 42.2526 14.9772 42.2866 14.8412 42.2939C14.6363 42.293 14.4362 42.2313 14.2663 42.1167C14.0964 42.0021 13.9644 41.8397 13.8868 41.6499C13.8093 41.4602 13.7898 41.2518 13.8308 41.051C13.8718 40.8502 13.9714 40.6661 14.1171 40.5219L16.4134 38.2256V38.2256ZM5.32405 58.8856L12.4501 51.7283C12.5464 51.6287 12.6614 51.5491 12.7886 51.4942C12.9158 51.4392 13.0526 51.4099 13.1911 51.408C13.3297 51.4061 13.4672 51.4317 13.5959 51.4831C13.7245 51.5346 13.8417 51.611 13.9407 51.7079C14.0397 51.8049 14.1185 51.9204 14.1727 52.048C14.2269 52.1755 14.2553 52.3125 14.2563 52.451C14.2573 52.5896 14.2309 52.727 14.1787 52.8553C14.1264 52.9836 14.0493 53.1003 13.9517 53.1987L6.78334 60.356C6.58628 60.5391 6.32578 60.6384 6.05684 60.633C5.7879 60.6276 5.53159 60.5179 5.34204 60.327C5.15249 60.1362 5.04454 59.8791 5.04099 59.6101C5.03745 59.3412 5.13859 59.0814 5.32304 58.8856H5.32405ZM20.6229 44.2473C20.626 44.2518 20.6276 44.2573 20.6272 44.2628C20.6268 44.2683 20.6246 44.2735 20.6209 44.2776L18.3245 46.5739C18.1791 46.7182 18.0798 46.9023 18.039 47.103C17.9983 47.3037 18.0179 47.512 18.0956 47.7016C18.1732 47.8911 18.3052 48.0534 18.475 48.1679C18.6449 48.2824 18.8448 48.3439 19.0496 48.3448C19.3239 48.3297 19.5811 48.2067 19.7646 48.0019L22.0741 45.6925C22.2093 45.5758 22.3121 45.4263 22.3725 45.2583C22.433 45.0903 22.4491 44.9096 22.4193 44.7335C22.3895 44.5575 22.3148 44.3921 22.2023 44.2534C22.0899 44.1147 21.9436 44.0074 21.7776 43.9417C21.5802 43.8646 21.3638 43.8498 21.1577 43.8994C20.9516 43.949 20.7656 44.0605 20.6249 44.2191C20.6216 44.223 20.6198 44.2279 20.6196 44.233C20.6194 44.2381 20.6209 44.2432 20.6239 44.2473H20.6229ZM26.1081 47.9202C26.1118 47.9167 26.1166 47.9145 26.1217 47.9139C26.1268 47.9134 26.1319 47.9145 26.1363 47.9172C26.1464 47.9233 26.1565 47.9223 26.1655 47.9142C26.3646 47.7353 26.6252 47.6403 26.8928 47.6491C27.1603 47.6579 27.4141 47.7699 27.6009 47.9616C27.7878 48.1532 27.8932 48.4098 27.8953 48.6775C27.8973 48.9451 27.7957 49.2032 27.6117 49.3977L25.3023 51.7071C25.1073 51.9008 24.8434 52.009 24.5686 52.0081C24.2938 52.0071 24.0306 51.8971 23.8369 51.7021C23.6433 51.5071 23.535 51.2432 23.536 50.9684C23.5369 50.6936 23.647 50.4304 23.842 50.2367L26.1081 47.9202ZM19.337 54.7013L15.0812 58.9471C14.9837 59.0432 14.9062 59.1577 14.8533 59.284C14.8005 59.4103 14.7732 59.5459 14.7732 59.6828C14.7732 59.8197 14.8005 59.9553 14.8533 60.0816C14.9062 60.2079 14.9837 60.3224 15.0812 60.4185C15.1779 60.5142 15.2925 60.59 15.4185 60.6414C15.5445 60.6928 15.6793 60.7188 15.8154 60.718C15.9518 60.719 16.087 60.6931 16.2134 60.6417C16.3397 60.5903 16.4546 60.5144 16.5516 60.4185L20.7973 56.1616C20.971 55.9642 21.0629 55.708 21.0545 55.4452C21.0461 55.1824 20.9379 54.9327 20.752 54.7467C20.566 54.5608 20.3163 54.4526 20.0535 54.4442C19.7907 54.4358 19.5345 54.5277 19.337 54.7013V54.7013ZM3.98275 50.1914L8.23859 45.9456C8.43653 45.7746 8.69183 45.6849 8.95323 45.6944C9.21462 45.7038 9.46274 45.8119 9.64776 45.9968C9.83278 46.1817 9.94099 46.4297 9.95066 46.6911C9.96033 46.9525 9.87075 47.2079 9.6999 47.4059L5.45314 51.6617C5.35636 51.7581 5.24149 51.8343 5.11514 51.886C4.9888 51.9378 4.85347 51.964 4.71694 51.9633C4.54605 51.9637 4.37771 51.9219 4.22687 51.8416C4.07603 51.7613 3.94735 51.645 3.85226 51.503C3.75717 51.361 3.69862 51.1977 3.6818 51.0277C3.66498 50.8576 3.69041 50.6861 3.75584 50.5282C3.80829 50.4021 3.88493 50.2882 3.98275 50.1914V50.1914Z" fill="url(#paint5_linear_222_62)" fill-opacity="0.1"/>
</g>
<g filter="url(#filter6_dii_222_62)">
<path d="M46.442 26.3362C50.7625 26.3362 54.2649 22.8338 54.2649 18.5133C54.2649 14.1928 50.7625 10.6904 46.442 10.6904C42.1216 10.6904 38.6191 14.1928 38.6191 18.5133C38.6191 22.8338 42.1216 26.3362 46.442 26.3362Z" fill="url(#paint6_linear_222_62)" fill-opacity="0.21"/>
<path d="M46.442 26.3362C50.7625 26.3362 54.2649 22.8338 54.2649 18.5133C54.2649 14.1928 50.7625 10.6904 46.442 10.6904C42.1216 10.6904 38.6191 14.1928 38.6191 18.5133C38.6191 22.8338 42.1216 26.3362 46.442 26.3362Z" fill="#D8FFC5" fill-opacity="0.26"/>
</g>
<defs>
<filter id="filter0_i_222_62" x="14.5908" y="-0.914" width="54.1512" height="52.3315" filterUnits="userSpaceOnUse" color-interpolation-filters="sRGB">
<feFlood flood-opacity="0" result="BackgroundImageFix"/>
<feBlend mode="normal" in="SourceGraphic" in2="BackgroundImageFix" result="shape"/>
<feColorMatrix in="SourceAlpha" type="matrix" values="0 0 0 0 0 0 0 0 0 0 0 0 0 0 0 0 0 0 127 0" result="hardAlpha"/>
<feOffset dx="2.742" dy="-0.914"/>
<feGaussianBlur stdDeviation="3.047"/>
<feComposite in2="hardAlpha" operator="arithmetic" k2="-1" k3="1"/>
<feColorMatrix type="matrix" values="0 0 0 0 0 0 0 0 0 0 0 0 0 0 0 0 0 0 0.17 0"/>
<feBlend mode="normal" in2="shape" result="effect1_innerShadow_222_62"/>
</filter>
<filter id="filter1_dii_222_62" x="0.325735" y="33.2488" width="36.4067" height="35.0862" filterUnits="userSpaceOnUse" color-interpolation-filters="sRGB">
<feFlood flood-opacity="0" result="BackgroundImageFix"/>
<feColorMatrix in="SourceAlpha" type="matrix" values="0 0 0 0 0 0 0 0 0 0 0 0 0 0 0 0 0 0 127 0" result="hardAlpha"/>
<feOffset dx="2.742" dy="1.523"/>
<feGaussianBlur stdDeviation="3.047"/>
<feColorMatrix type="matrix" values="0 0 0 0 0.0690278 0 0 0 0 0.295833 0 0 0 0 0.11166 0 0 0 0.08 0"/>
<feBlend mode="normal" in2="BackgroundImageFix" result="effect1_dropShadow_222_62"/>
<feBlend mode="normal" in="SourceGraphic" in2="effect1_dropShadow_222_62" result="shape"/>
<feColorMatrix in="SourceAlpha" type="matrix" values="0 0 0 0 0 0 0 0 0 0 0 0 0 0 0 0 0 0 127 0" result="hardAlpha"/>
<feOffset/>
<feGaussianBlur stdDeviation="1.523"/>
<feComposite in2="hardAlpha" operator="arithmetic" k2="-1" k3="1"/>
<feColorMatrix type="matrix" values="0 0 0 0 0.156863 0 0 0 0 0.67451 0 0 0 0 0.25098 0 0 0 0.2 0"/>
<feBlend mode="normal" in2="shape" result="effect2_innerShadow_222_62"/>
<feColorMatrix in="SourceAlpha" type="matrix" values="0 0 0 0 0 0 0 0 0 0 0 0 0 0 0 0 0 0 127 0" result="hardAlpha"/>
<feOffset dx="-0.914" dy="1.828"/>
<feGaussianBlur stdDeviation="2.285"/>
<feComposite in2="hardAlpha" operator="arithmetic" k2="-1" k3="1"/>
<feColorMatrix type="matrix" values="0 0 0 0 0.0770313 0 0 0 0 0.6375 0 0 0 0 0.178935 0 0 0 0.09 0"/>
<feBlend mode="normal" in2="effect2_innerShadow_222_62" result="effect3_innerShadow_222_62"/>
</filter>
<filter id="filter2_i_222_62" x="14.5889" y="-0.914" width="54.1522" height="52.3315" filterUnits="userSpaceOnUse" color-interpolation-filters="sRGB">
<feFlood flood-opacity="0" result="BackgroundImageFix"/>
<feBlend mode="normal" in="SourceGraphic" in2="BackgroundImageFix" result="shape"/>
<feColorMatrix in="SourceAlpha" type="matrix" values="0 0 0 0 0 0 0 0 0 0 0 0 0 0 0 0 0 0 127 0" result="hardAlpha"/>
<feOffset dx="2.742" dy="-0.914"/>
<feGaussianBlur stdDeviation="3.047"/>
<feComposite in2="hardAlpha" operator="arithmetic" k2="-1" k3="1"/>
<feColorMatrix type="matrix" values="0 0 0 0 0 0 0 0 0 0 0 0 0 0 0 0 0 0 0.17 0"/>
<feBlend mode="normal" in2="shape" result="effect1_innerShadow_222_62"/>
</filter>
<filter id="filter3_iii_222_62" x="26.9696" y="32.7067" width="21.8341" height="35.7656" filterUnits="userSpaceOnUse" color-interpolation-filters="sRGB">
<feFlood flood-opacity="0" result="BackgroundImageFix"/>
<feBlend mode="normal" in="SourceGraphic" in2="BackgroundImageFix" result="shape"/>
<feColorMatrix in="SourceAlpha" type="matrix" values="0 0 0 0 0 0 0 0 0 0 0 0 0 0 0 0 0 0 127 0" result="hardAlpha"/>
<feOffset dx="-3.047" dy="3.047"/>
<feGaussianBlur stdDeviation="1.523"/>
<feComposite in2="hardAlpha" operator="arithmetic" k2="-1" k3="1"/>
<feColorMatrix type="matrix" values="0 0 0 0 1 0 0 0 0 1 0 0 0 0 1 0 0 0 0.15 0"/>
<feBlend mode="normal" in2="shape" result="effect1_innerShadow_222_62"/>
<feColorMatrix in="SourceAlpha" type="matrix" values="0 0 0 0 0 0 0 0 0 0 0 0 0 0 0 0 0 0 127 0" result="hardAlpha"/>
<feOffset dy="-3.047"/>
<feGaussianBlur stdDeviation="1.523"/>
<feComposite in2="hardAlpha" operator="arithmetic" k2="-1" k3="1"/>
<feColorMatrix type="matrix" values="0 0 0 0 0.156863 0 0 0 0 0.67451 0 0 0 0 0.25098 0 0 0 0.05 0"/>
<feBlend mode="normal" in2="effect1_innerShadow_222_62" result="effect2_innerShadow_222_62"/>
<feColorMatrix in="SourceAlpha" type="matrix" values="0 0 0 0 0 0 0 0 0 0 0 0 0 0 0 0 0 0 127 0" result="hardAlpha"/>
<feOffset dx="-0.914" dy="1.828"/>
<feGaussianBlur stdDeviation="2.285"/>
<feComposite in2="hardAlpha" operator="arithmetic" k2="-1" k3="1"/>
<feColorMatrix type="matrix" values="0 0 0 0 0.0770313 0 0 0 0 0.6375 0 0 0 0 0.178935 0 0 0 0.2 0"/>
<feBlend mode="normal" in2="effect2_innerShadow_222_62" result="effect3_innerShadow_222_62"/>
</filter>
<filter id="filter4_iii_222_62" x="-2.046" y="15.401" width="33.0851" height="24.3078" filterUnits="userSpaceOnUse" color-interpolation-filters="sRGB">
<feFlood flood-opacity="0" result="BackgroundImageFix"/>
<feBlend mode="normal" in="SourceGraphic" in2="BackgroundImageFix" result="shape"/>
<feColorMatrix in="SourceAlpha" type="matrix" values="0 0 0 0 0 0 0 0 0 0 0 0 0 0 0 0 0 0 127 0" result="hardAlpha"/>
<feOffset dx="-3.047" dy="3.047"/>
<feGaussianBlur stdDeviation="1.523"/>
<feComposite in2="hardAlpha" operator="arithmetic" k2="-1" k3="1"/>
<feColorMatrix type="matrix" values="0 0 0 0 1 0 0 0 0 1 0 0 0 0 1 0 0 0 0.15 0"/>
<feBlend mode="normal" in2="shape" result="effect1_innerShadow_222_62"/>
<feColorMatrix in="SourceAlpha" type="matrix" values="0 0 0 0 0 0 0 0 0 0 0 0 0 0 0 0 0 0 127 0" result="hardAlpha"/>
<feOffset dy="-3.047"/>
<feGaussianBlur stdDeviation="1.523"/>
<feComposite in2="hardAlpha" operator="arithmetic" k2="-1" k3="1"/>
<feColorMatrix type="matrix" values="0 0 0 0 0.156863 0 0 0 0 0.67451 0 0 0 0 0.25098 0 0 0 0.05 0"/>
<feBlend mode="normal" in2="effect1_innerShadow_222_62" result="effect2_innerShadow_222_62"/>
<feColorMatrix in="SourceAlpha" type="matrix" values="0 0 0 0 0 0 0 0 0 0 0 0 0 0 0 0 0 0 127 0" result="hardAlpha"/>
<feOffset dx="-0.914" dy="1.828"/>
<feGaussianBlur stdDeviation="2.285"/>
<feComposite in2="hardAlpha" operator="arithmetic" k2="-1" k3="1"/>
<feColorMatrix type="matrix" values="0 0 0 0 0.0770313 0 0 0 0 0.6375 0 0 0 0 0.178935 0 0 0 0.2 0"/>
<feBlend mode="normal" in2="effect2_innerShadow_222_62" result="effect3_innerShadow_222_62"/>
</filter>
<filter id="filter5_dii_222_62" x="0.324758" y="33.2488" width="36.4067" height="35.0862" filterUnits="userSpaceOnUse" color-interpolation-filters="sRGB">
<feFlood flood-opacity="0" result="BackgroundImageFix"/>
<feColorMatrix in="SourceAlpha" type="matrix" values="0 0 0 0 0 0 0 0 0 0 0 0 0 0 0 0 0 0 127 0" result="hardAlpha"/>
<feOffset dx="2.742" dy="1.523"/>
<feGaussianBlur stdDeviation="3.047"/>
<feColorMatrix type="matrix" values="0 0 0 0 0.0690278 0 0 0 0 0.295833 0 0 0 0 0.11166 0 0 0 0.08 0"/>
<feBlend mode="normal" in2="BackgroundImageFix" result="effect1_dropShadow_222_62"/>
<feBlend mode="normal" in="SourceGraphic" in2="effect1_dropShadow_222_62" result="shape"/>
<feColorMatrix in="SourceAlpha" type="matrix" values="0 0 0 0 0 0 0 0 0 0 0 0 0 0 0 0 0 0 127 0" result="hardAlpha"/>
<feOffset/>
<feGaussianBlur stdDeviation="1.523"/>
<feComposite in2="hardAlpha" operator="arithmetic" k2="-1" k3="1"/>
<feColorMatrix type="matrix" values="0 0 0 0 0.156863 0 0 0 0 0.67451 0 0 0 0 0.25098 0 0 0 0.2 0"/>
<feBlend mode="normal" in2="shape" result="effect2_innerShadow_222_62"/>
<feColorMatrix in="SourceAlpha" type="matrix" values="0 0 0 0 0 0 0 0 0 0 0 0 0 0 0 0 0 0 127 0" result="hardAlpha"/>
<feOffset dx="-0.914" dy="1.828"/>
<feGaussianBlur stdDeviation="2.285"/>
<feComposite in2="hardAlpha" operator="arithmetic" k2="-1" k3="1"/>
<feColorMatrix type="matrix" values="0 0 0 0 0.0770313 0 0 0 0 0.6375 0 0 0 0 0.178935 0 0 0 0.09 0"/>
<feBlend mode="normal" in2="effect2_innerShadow_222_62" result="effect3_innerShadow_222_62"/>
</filter>
<filter id="filter6_dii_222_62" x="35.2671" y="6.11943" width="27.8335" height="27.8338" filterUnits="userSpaceOnUse" color-interpolation-filters="sRGB">
<feFlood flood-opacity="0" result="BackgroundImageFix"/>
<feColorMatrix in="SourceAlpha" type="matrix" values="0 0 0 0 0 0 0 0 0 0 0 0 0 0 0 0 0 0 127 0" result="hardAlpha"/>
<feOffset dx="2.742" dy="1.523"/>
<feGaussianBlur stdDeviation="3.047"/>
<feColorMatrix type="matrix" values="0 0 0 0 0.0690278 0 0 0 0 0.295833 0 0 0 0 0.11166 0 0 0 0.08 0"/>
<feBlend mode="normal" in2="BackgroundImageFix" result="effect1_dropShadow_222_62"/>
<feBlend mode="normal" in="SourceGraphic" in2="effect1_dropShadow_222_62" result="shape"/>
<feColorMatrix in="SourceAlpha" type="matrix" values="0 0 0 0 0 0 0 0 0 0 0 0 0 0 0 0 0 0 127 0" result="hardAlpha"/>
<feOffset dx="-3.047" dy="3.047"/>
<feGaussianBlur stdDeviation="1.523"/>
<feComposite in2="hardAlpha" operator="arithmetic" k2="-1" k3="1"/>
<feColorMatrix type="matrix" values="0 0 0 0 1 0 0 0 0 1 0 0 0 0 1 0 0 0 0.15 0"/>
<feBlend mode="normal" in2="shape" result="effect2_innerShadow_222_62"/>
<feColorMatrix in="SourceAlpha" type="matrix" values="0 0 0 0 0 0 0 0 0 0 0 0 0 0 0 0 0 0 127 0" result="hardAlpha"/>
<feOffset dx="0.914" dy="-1.828"/>
<feGaussianBlur stdDeviation="1.371"/>
<feComposite in2="hardAlpha" operator="arithmetic" k2="-1" k3="1"/>
<feColorMatrix type="matrix" values="0 0 0 0 0.0199306 0 0 0 0 0.341667 0 0 0 0 0.0521041 0 0 0 0.05 0"/>
<feBlend mode="normal" in2="effect2_innerShadow_222_62" result="effect3_innerShadow_222_62"/>
</filter>
<linearGradient id="paint0_linear_222_62" x1="60.324" y1="-0.000395707" x2="47.5474" y2="57.4312" gradientUnits="userSpaceOnUse">
<stop stop-color="#9BE15D"/>
<stop offset="1" stop-color="#00E3AE"/>
</linearGradient>
<linearGradient id="paint1_linear_222_62" x1="9.25714" y1="45.6965" x2="7.70103" y2="52.6965" gradientUnits="userSpaceOnUse">
<stop stop-color="#9BE15D"/>
<stop offset="1" stop-color="#00E3AE"/>
</linearGradient>
<linearGradient id="paint2_linear_222_62" x1="60.3231" y1="-0.000406055" x2="47.5465" y2="57.4312" gradientUnits="userSpaceOnUse">
<stop stop-color="#9BE15D"/>
<stop offset="1" stop-color="#00E3AE"/>
</linearGradient>
<linearGradient id="paint3_linear_222_62" x1="45.9019" y1="34.8831" x2="41.1247" y2="66.5013" gradientUnits="userSpaceOnUse">
<stop stop-color="#9BE15D"/>
<stop offset="1" stop-color="#00E3AE"/>
</linearGradient>
<linearGradient id="paint4_linear_222_62" x1="31.8759" y1="21.4602" x2="0.156838" y2="25.5083" gradientUnits="userSpaceOnUse">
<stop stop-color="#9BE15D"/>
<stop offset="1" stop-color="#00E3AE"/>
</linearGradient>
<linearGradient id="paint5_linear_222_62" x1="9.25616" y1="45.6965" x2="7.70006" y2="52.6965" gradientUnits="userSpaceOnUse">
<stop stop-color="#9BE15D"/>
<stop offset="1" stop-color="#00E3AE"/>
</linearGradient>
<linearGradient id="paint6_linear_222_62" x1="52.5383" y1="10.6904" x2="48.6506" y2="28.1666" gradientUnits="userSpaceOnUse">
<stop stop-color="#9BE15D"/>
<stop offset="1" stop-color="#00E3AE"/>
</linearGradient>
</defs>
</svg>
