<svg width="71" height="72" viewBox="0 0 71 72" fill="none" xmlns="http://www.w3.org/2000/svg">
<path fill-rule="evenodd" clip-rule="evenodd" d="M44.6485 7.59918C46.5194 1.04246 55.8111 1.04246 57.682 7.59918C57.9694 8.60643 58.6373 9.46242 59.5444 9.98613C60.4515 10.5098 61.5268 10.6602 62.5428 10.4055C69.1568 8.74741 73.8026 16.7948 69.0606 21.6934C68.3321 22.4459 67.9247 23.4523 67.9247 24.4997C67.9247 25.5472 68.3321 26.5535 69.0606 27.306C73.8026 32.2058 69.1579 40.252 62.5428 38.594C61.5267 38.3393 60.4513 38.4898 59.5441 39.0137C58.637 39.5377 57.9692 40.3939 57.682 41.4014C55.8111 47.9581 46.5194 47.9581 44.6485 41.4014C44.3611 40.3941 43.6932 39.5381 42.7861 39.0144C41.8789 38.4907 40.8037 38.3403 39.7877 38.595C33.1737 40.252 28.5278 32.2058 33.2698 27.3071C33.9987 26.5546 34.4063 25.548 34.4063 24.5003C34.4063 23.4526 33.9987 22.446 33.2698 21.6934C28.5278 16.7948 33.1726 8.74741 39.7877 10.4055C40.8037 10.6602 41.8789 10.5098 42.7861 9.98613C43.6932 9.46242 44.3611 8.60643 44.6485 7.59918V7.59918ZM59.5334 19.8917C59.6561 19.7543 59.7499 19.5936 59.8091 19.4193C59.8684 19.2449 59.8919 19.0604 59.8784 18.8767C59.8648 18.693 59.8144 18.514 59.7301 18.3502C59.6458 18.1864 59.5294 18.0413 59.3879 17.9235C59.2463 17.8057 59.0825 17.7175 58.9062 17.6644C58.7298 17.6112 58.5446 17.5941 58.3615 17.6141C58.1784 17.6341 58.0012 17.6907 57.8405 17.7806C57.6798 17.8705 57.5388 17.9919 57.426 18.1374L51.0929 25.7365C50.4145 26.5499 49.9986 27.0436 49.6562 27.3536C49.5611 27.4456 49.4535 27.5238 49.3365 27.5858C49.22 27.5241 49.1127 27.4463 49.0178 27.3547C48.6754 27.0446 48.2595 26.5499 47.5812 25.7365L44.9056 22.5252C44.6695 22.2566 44.338 22.0909 43.9816 22.0632C43.6251 22.0354 43.272 22.148 42.9973 22.3768C42.7226 22.6056 42.548 22.9326 42.5108 23.2881C42.4736 23.6437 42.5767 23.9998 42.7981 24.2804L45.5321 27.562C46.1327 28.2836 46.6749 28.9339 47.1804 29.3897C47.7313 29.8866 48.4226 30.3295 49.3365 30.3295C50.2503 30.3295 50.9427 29.8866 51.4936 29.3897C51.9991 28.9328 52.5414 28.2836 53.1409 27.562L59.5323 19.8927L59.5334 19.8917Z" fill="#00F9E0" fill-opacity="0.7"/>
<path fill-rule="evenodd" clip-rule="evenodd" d="M22.3078 8.86806C25.3009 -1.62269 40.1686 -1.62269 43.1629 8.86806C43.6227 10.4797 44.6913 11.8493 46.1427 12.6873C47.5941 13.5253 49.3145 13.766 50.9402 13.3584C61.5217 10.7054 68.9555 23.5812 61.3672 31.419C60.2013 32.6231 59.5495 34.2334 59.5495 35.9094C59.5495 37.5854 60.2013 39.1956 61.3672 40.3997C68.9555 48.2375 61.5217 61.1133 50.9402 58.4604C49.3145 58.0528 47.5941 58.2934 46.1427 59.1314C44.6913 59.9694 43.6227 61.339 43.1629 62.9507C40.1686 73.4414 25.3009 73.4414 22.3078 62.9507C21.8479 61.339 20.7793 59.9694 19.3279 59.1314C17.8765 58.2934 16.1561 58.0528 14.5304 58.4604C3.94787 61.1133 -3.48595 48.2375 4.10234 40.3997C5.26818 39.1956 5.92003 37.5854 5.92003 35.9094C5.92003 34.2334 5.26818 32.6231 4.10234 31.419C-3.48595 23.5812 3.94787 10.7054 14.5304 13.3584C16.1561 13.766 17.8765 13.5253 19.3279 12.6873C20.7793 11.8493 21.8479 10.4797 22.3078 8.86806V8.86806Z" fill="url(#paint0_radial_222_59)"/>
<path d="M22.3078 8.86806C25.3009 -1.62269 40.1686 -1.62269 43.1629 8.86806C43.6227 10.4797 44.6913 11.8493 46.1427 12.6873C47.5941 13.5253 49.3145 13.766 50.9402 13.3584C61.5217 10.7054 68.9555 23.5812 61.3672 31.419C60.2013 32.6231 59.5495 34.2334 59.5495 35.9094C59.5495 37.5854 60.2013 39.1956 61.3672 40.3997C68.9555 48.2375 61.5217 61.1133 50.9402 58.4604C49.3145 58.0528 47.5941 58.2934 46.1427 59.1314C44.6913 59.9694 43.6227 61.339 43.1629 62.9507C40.1686 73.4414 25.3009 73.4414 22.3078 62.9507C21.8479 61.339 20.7793 59.9694 19.3279 59.1314C17.8765 58.2934 16.1561 58.0528 14.5304 58.4604C3.94787 61.1133 -3.48595 48.2375 4.10234 40.3997C5.26818 39.1956 5.92003 37.5854 5.92003 35.9094C5.92003 34.2334 5.26818 32.6231 4.10234 31.419C-3.48595 23.5812 3.94787 10.7054 14.5304 13.3584C16.1561 13.766 17.8765 13.5253 19.3279 12.6873C20.7793 11.8493 21.8479 10.4797 22.3078 8.86806V8.86806Z" stroke="url(#paint1_linear_222_59)" stroke-width="0.813" stroke-linecap="round"/>
<g filter="url(#filter0_d_222_59)">
<path fill-rule="evenodd" clip-rule="evenodd" d="M46.1227 28.5369C46.3134 28.3164 46.4581 28.0602 46.5486 27.7831C46.6391 27.5061 46.6735 27.2138 46.6497 26.9233C46.626 26.6328 46.5446 26.35 46.4103 26.0913C46.276 25.8326 46.0915 25.6033 45.8676 25.4167C45.6437 25.2301 45.3849 25.09 45.1062 25.0046C44.8276 24.9191 44.5347 24.8901 44.2447 24.9191C43.9547 24.9481 43.6734 25.0346 43.4172 25.1736C43.161 25.3126 42.935 25.5012 42.7526 25.7284L32.6183 37.8859C31.5338 39.1875 30.8673 39.9793 30.3175 40.474C30.0636 40.7041 29.9124 40.7959 29.8401 40.8305C29.8298 40.8356 29.8194 40.8403 29.8087 40.8445C29.7977 40.8403 29.7869 40.8357 29.7763 40.8305C29.705 40.7959 29.5538 40.7041 29.2989 40.474C28.7501 39.9793 28.0848 39.1886 26.9992 37.8859L22.7184 32.7485C22.534 32.5272 22.3078 32.3443 22.0527 32.2104C21.7976 32.0764 21.5187 31.994 21.2317 31.9679C20.9448 31.9418 20.6556 31.9724 20.3805 32.0581C20.1054 32.1437 19.8499 32.2827 19.6285 32.4672C19.4072 32.6516 19.2243 32.8778 19.0904 33.1328C18.9564 33.3879 18.874 33.6669 18.8479 33.9538C18.8218 34.2407 18.8524 34.53 18.9381 34.8051C19.0237 35.0801 19.1627 35.3357 19.3471 35.557L23.7219 40.8067C24.6833 41.9614 25.5496 43.0006 26.3575 43.7319C27.239 44.5269 28.3472 45.2344 29.8087 45.2344C31.2702 45.2344 32.3796 44.5269 33.2599 43.7319C34.069 43.0006 34.9342 41.9603 35.8956 40.8078L46.1217 28.5369H46.1227Z" fill="url(#paint2_linear_222_59)"/>
</g>
<defs>
<filter id="filter0_d_222_59" x="15.5829" y="21.6522" width="40.8424" height="33.3502" filterUnits="userSpaceOnUse" color-interpolation-filters="sRGB">
<feFlood flood-opacity="0" result="BackgroundImageFix"/>
<feColorMatrix in="SourceAlpha" type="matrix" values="0 0 0 0 0 0 0 0 0 0 0 0 0 0 0 0 0 0 127 0" result="hardAlpha"/>
<feOffset dx="3.256" dy="3.256"/>
<feGaussianBlur stdDeviation="3.256"/>
<feColorMatrix type="matrix" values="0 0 0 0 0.152941 0 0 0 0 0.784314 0 0 0 0 0.235294 0 0 0 0.5 0"/>
<feBlend mode="normal" in2="BackgroundImageFix" result="effect1_dropShadow_222_59"/>
<feBlend mode="normal" in="SourceGraphic" in2="effect1_dropShadow_222_59" result="shape"/>
</filter>
<radialGradient id="paint0_radial_222_59" cx="0" cy="0" r="1" gradientUnits="userSpaceOnUse" gradientTransform="translate(33.5427 19.3427) rotate(-5.981) scale(28.3931 31.1746)">
<stop stop-color="#00F9E0"/>
<stop offset="1" stop-color="#0085FF"/>
</radialGradient>
<linearGradient id="paint1_linear_222_59" x1="1.00005" y1="1" x2="70.5315" y2="64.1443" gradientUnits="userSpaceOnUse">
<stop stop-color="white" stop-opacity="0.25"/>
<stop offset="1" stop-color="white" stop-opacity="0"/>
</linearGradient>
<linearGradient id="paint2_linear_222_59" x1="32.9693" y1="49.5594" x2="59.8173" y2="13.5245" gradientUnits="userSpaceOnUse">
<stop stop-color="white"/>
<stop offset="1" stop-color="white" stop-opacity="0.2"/>
</linearGradient>
</defs>
</svg>
