<svg xmlns="http://www.w3.org/2000/svg" width="24" height="24" viewBox="0 0 24 24" fill="none"><path d="M11.7007 0.163086C5.24951 0.163086 0 5.41199 0 11.8624C0 18.3128 5.24951 23.5644 11.7007 23.5644C18.1519 23.5644 23.4014 18.3155 23.4014 11.8651C23.4014 5.41469 18.1519 0.163086 11.7007 0.163086ZM16.7423 9.63217L10.8906 15.9314C10.6259 16.2176 10.2641 16.3634 9.89954 16.3634C9.58629 16.3634 9.27576 16.2554 9.01922 16.0394L5.86789 13.3393C5.30081 12.8533 5.23601 12.0028 5.72207 11.4358C6.20814 10.8688 7.05875 10.8013 7.62583 11.29L9.79152 13.1449L14.7602 7.79613C15.2679 7.25072 16.1212 7.21833 16.6694 7.72594C17.2175 8.23355 17.2472 9.08676 16.7423 9.63217Z" fill="url(#paint0_linear_1460_5097)"></path><defs><linearGradient id="paint0_linear_1460_5097" x1="7.09607" y1="-20.1028" x2="13.432" y2="20.429" gradientUnits="userSpaceOnUse"><stop offset="0.265625" stop-color="#00F9E0"></stop><stop offset="1" stop-color="#25FD1E"></stop></linearGradient></defs></svg>