<svg xmlns="http://www.w3.org/2000/svg" width="214" height="214" viewBox="0 0 214 214" fill="none"><g style="mix-blend-mode:hard-light" filter="url(#filter0_f_287_482)"><path style="mix-blend-mode:hard-light" d="M119.426 88.054C119.426 86.4828 120.049 84.9758 121.159 83.8641C122.269 82.7524 123.776 82.1269 125.347 82.125C126.918 82.1269 128.425 82.7525 129.535 83.8644C130.645 84.9763 131.269 86.4836 131.269 88.055C131.269 89.6263 130.645 91.1333 129.535 92.245C128.424 93.3567 126.918 93.9821 125.347 93.984C123.775 93.9821 122.269 93.3565 121.159 92.2445C120.049 91.1326 119.425 89.6253 119.426 88.054Z" stroke="url(#paint0_linear_287_482)" stroke-width="4.438"></path><path style="mix-blend-mode:hard-light" d="M115.174 86.505C115.075 87.12 115.026 87.735 115.026 88.35C115.026 93.886 119.498 98.362 125.002 98.362C125.616 98.362 126.206 98.29 126.82 98.192V118.044C126.82 126.387 121.906 131.332 113.552 131.332H95.396C87.039 131.332 82.125 126.387 82.125 118.044V99.84C82.125 91.475 87.039 86.505 95.396 86.505H115.174ZM109.964 113.517L117.066 104.343L116.967 104.392C117.36 103.85 117.434 103.162 117.164 102.547C117.035 102.249 116.828 101.991 116.564 101.8C116.301 101.61 115.991 101.493 115.667 101.464C115.338 101.429 115.006 101.481 114.704 101.615C114.402 101.749 114.14 101.96 113.945 102.227L108.001 109.928L101.192 104.564C100.794 104.256 100.292 104.115 99.792 104.17C99.3021 104.246 98.8612 104.51 98.563 104.906L91.293 114.381L91.143 114.602C90.725 115.387 90.922 116.396 91.659 116.939C92.003 117.161 92.371 117.309 92.789 117.309C93.357 117.333 93.895 117.035 94.239 116.57L100.406 108.621L107.409 113.889L107.63 114.034C108.017 114.241 108.465 114.302 108.893 114.207C109.321 114.113 109.701 113.868 109.964 113.517Z" stroke="url(#paint1_linear_287_482)" stroke-width="4.438"></path></g><g style="mix-blend-mode:hard-light" filter="url(#filter1_f_287_482)"><g style="mix-blend-mode:hard-light"><g style="mix-blend-mode:hard-light"><path d="M119.426 88.054C119.426 86.4828 120.049 84.9758 121.159 83.8641C122.269 82.7524 123.776 82.1269 125.347 82.125C126.918 82.1269 128.425 82.7525 129.535 83.8644C130.645 84.9763 131.269 86.4836 131.269 88.055C131.269 89.6263 130.645 91.1333 129.535 92.245C128.424 93.3567 126.918 93.9821 125.347 93.984C123.775 93.9821 122.269 93.3565 121.159 92.2445C120.049 91.1326 119.425 89.6253 119.426 88.054Z" stroke="#25FD1E" stroke-opacity="0.6" stroke-width="5.804"></path></g></g><g style="mix-blend-mode:hard-light"><g style="mix-blend-mode:hard-light"><path d="M115.174 86.505C115.075 87.12 115.026 87.735 115.026 88.35C115.026 93.886 119.498 98.362 125.002 98.362C125.616 98.362 126.206 98.29 126.82 98.192V118.044C126.82 126.387 121.906 131.332 113.552 131.332H95.396C87.039 131.332 82.125 126.387 82.125 118.044V99.84C82.125 91.475 87.039 86.505 95.396 86.505H115.174ZM109.964 113.517L117.066 104.343L116.967 104.392C117.36 103.85 117.434 103.162 117.164 102.547C117.035 102.249 116.828 101.991 116.564 101.8C116.301 101.61 115.991 101.493 115.667 101.464C115.338 101.429 115.006 101.481 114.704 101.615C114.402 101.749 114.14 101.96 113.945 102.227L108.001 109.928L101.192 104.564C100.794 104.256 100.292 104.115 99.792 104.17C99.3021 104.246 98.8612 104.51 98.563 104.906L91.293 114.381L91.143 114.602C90.725 115.387 90.922 116.396 91.659 116.939C92.003 117.161 92.371 117.309 92.789 117.309C93.357 117.333 93.895 117.035 94.239 116.57L100.406 108.621L107.409 113.889L107.63 114.034C108.017 114.241 108.465 114.302 108.893 114.207C109.321 114.113 109.701 113.868 109.964 113.517Z" stroke="#25FD1E" stroke-opacity="0.6" stroke-width="5.804"></path></g></g></g><defs><filter id="filter0_f_287_482" x="0.312248" y="0.312004" width="212.77" height="212.833" filterUnits="userSpaceOnUse" color-interpolation-filters="sRGB"><feGaussianBlur stdDeviation="39.797"></feGaussianBlur></filter><filter id="filter1_f_287_482" x="52.6907" y="52.691" width="108.011" height="108.075" filterUnits="userSpaceOnUse" color-interpolation-filters="sRGB"><feGaussianBlur stdDeviation="13.266"></feGaussianBlur></filter><linearGradient id="paint0_linear_287_482" x1="97.0276" y1="39.511" x2="110.367" y2="124.734" gradientUnits="userSpaceOnUse"><stop offset="0.266" stop-color="#00F9E0"></stop><stop offset="1" stop-color="#25FD1E"></stop></linearGradient><linearGradient id="paint1_linear_287_482" x1="97.027" y1="39.511" x2="110.366" y2="124.734" gradientUnits="userSpaceOnUse"><stop offset="0.266" stop-color="#00F9E0"></stop><stop offset="1" stop-color="#25FD1E"></stop></linearGradient></defs></svg>