<svg xmlns="http://www.w3.org/2000/svg" width="206" height="214" viewBox="0 0 206 214" fill="none"><g style="mix-blend-mode:hard-light" filter="url(#filter0_f_287_476)"><g style="mix-blend-mode:hard-light"><g style="mix-blend-mode:hard-light"><path d="M116.644 95.401V99.174C120.876 100.496 123.96 104.332 123.96 108.914V121.061C123.96 126.733 119.264 131.332 113.474 131.332H92.6775C86.8845 131.332 82.1875 126.733 82.1875 121.061V108.914C82.1875 104.332 85.2745 100.496 89.5035 99.174V95.4C89.5285 88.065 95.5955 82.124 103.037 82.124C110.577 82.124 116.644 88.065 116.644 95.4V95.401ZM103.087 86.404C108.155 86.404 112.275 90.438 112.275 95.401V98.643H93.8735V95.353C93.8985 90.413 98.0175 86.403 103.087 86.403V86.404ZM105.259 117.689C105.259 118.887 104.285 119.841 103.062 119.841C102.777 119.843 102.496 119.789 102.232 119.682C101.969 119.575 101.73 119.417 101.528 119.217C101.326 119.017 101.166 118.779 101.056 118.517C100.947 118.254 100.89 117.973 100.89 117.689V112.261C100.89 111.088 101.863 110.134 103.062 110.134C104.285 110.134 105.259 111.088 105.259 112.261V117.689Z" stroke="#EB1E59" stroke-width="4.438"></path></g></g></g><g style="mix-blend-mode:hard-light" filter="url(#filter1_f_287_476)"><path style="mix-blend-mode:hard-light" d="M116.644 95.401V99.174C120.876 100.496 123.96 104.332 123.96 108.914V121.061C123.96 126.733 119.264 131.332 113.474 131.332H92.6775C86.8845 131.332 82.1875 126.733 82.1875 121.061V108.914C82.1875 104.332 85.2745 100.496 89.5035 99.174V95.4C89.5285 88.065 95.5955 82.124 103.037 82.124C110.577 82.124 116.644 88.065 116.644 95.4V95.401ZM103.087 86.404C108.155 86.404 112.275 90.438 112.275 95.401V98.643H93.8735V95.353C93.8985 90.413 98.0175 86.403 103.087 86.403V86.404ZM105.259 117.689C105.259 118.887 104.285 119.841 103.062 119.841C102.777 119.843 102.496 119.789 102.232 119.682C101.969 119.575 101.73 119.417 101.528 119.217C101.326 119.017 101.166 118.779 101.056 118.517C100.947 118.254 100.89 117.973 100.89 117.689V112.261C100.89 111.088 101.863 110.134 103.062 110.134C104.285 110.134 105.259 111.088 105.259 112.261V117.689Z" stroke="url(#paint0_radial_287_476)" stroke-width="5.804"></path></g><defs><filter id="filter0_f_287_476" x="0.374748" y="0.310997" width="205.399" height="212.834" filterUnits="userSpaceOnUse" color-interpolation-filters="sRGB"><feGaussianBlur stdDeviation="39.797"></feGaussianBlur></filter><filter id="filter1_f_287_476" x="52.7532" y="52.69" width="100.64" height="108.076" filterUnits="userSpaceOnUse" color-interpolation-filters="sRGB"><feGaussianBlur stdDeviation="13.266"></feGaussianBlur></filter><radialGradient id="paint0_radial_287_476" cx="0" cy="0" r="1" gradientUnits="userSpaceOnUse" gradientTransform="translate(100.51 82.125) rotate(82.441) scale(42.9873 36.7367)"><stop stop-color="#FF5555"></stop><stop offset="1" stop-color="#D800B9"></stop></radialGradient></defs></svg>