<svg xmlns="http://www.w3.org/2000/svg" width="70" height="71" viewBox="0 0 70 71" fill="none"><g filter="url(#filter0_f_270_78)"><path d="M52.1465 10.8319C52.1461 8.75649 52.9697 6.7658 54.4363 5.29726C55.9028 3.82872 57.8924 3.00245 59.9678 3C62.0436 3.00245 64.0335 3.82886 65.5003 5.29764C66.9671 6.76643 67.7909 8.75745 67.7905 10.8332C67.7905 12.9088 66.9666 14.8995 65.4998 16.368C64.0331 17.8365 62.0434 18.6627 59.9678 18.6652C57.8922 18.6627 55.9024 17.8362 54.4358 16.3674C52.9692 14.8986 52.1458 12.9076 52.1465 10.8319V10.8319Z" stroke="#25FD1E" stroke-opacity="0.6" stroke-width="2.731"></path><path d="M46.5311 8.78516C46.4003 9.59754 46.3356 10.4099 46.3356 11.2223C46.3356 18.5351 52.2429 24.4477 59.5134 24.4477C60.3244 24.4477 61.1038 24.3526 61.9149 24.2231V50.4466C61.9149 61.4673 55.4237 67.9994 44.3885 67.9994H20.4053C9.36615 67.9994 2.875 61.4673 2.875 50.4466V26.4C2.875 15.3503 9.36615 8.78516 20.4053 8.78516H46.5311ZM39.6489 44.4667L49.0303 32.3483L48.8996 32.413C49.4187 31.697 49.5164 30.7882 49.1598 29.9758C48.989 29.5818 48.7153 29.241 48.3673 28.9892C48.0194 28.7375 47.61 28.5841 47.1823 28.5453C46.7481 28.499 46.3093 28.5678 45.9101 28.7447C45.5108 28.9216 45.1651 29.2004 44.9076 29.5531L37.0559 39.7258L28.0616 32.6402C27.5359 32.2335 26.8728 32.0469 26.2122 32.1197C25.5651 32.22 24.9826 32.5688 24.5888 33.092L14.9855 45.608L14.7873 45.8999C14.2352 46.9368 14.4954 48.2697 15.4689 48.987C15.9233 49.2802 16.4095 49.4757 16.9616 49.4757C17.7119 49.5074 18.4226 49.1138 18.877 48.4995L27.0233 37.9993L36.2739 44.9581L36.5658 45.1496C37.0766 45.4227 37.6683 45.5039 38.2338 45.3787C38.7993 45.2534 39.3012 44.9299 39.6489 44.4667V44.4667Z" stroke="#25FD1E" stroke-opacity="0.6" stroke-width="2.731"></path></g><g filter="url(#filter1_f_270_78)"><path d="M52.1465 10.8319C52.1461 8.75649 52.9697 6.7658 54.4363 5.29726C55.9028 3.82872 57.8924 3.00245 59.9678 3C62.0436 3.00245 64.0335 3.82886 65.5003 5.29764C66.9671 6.76643 67.7909 8.75745 67.7905 10.8332C67.7905 12.9088 66.9666 14.8995 65.4998 16.368C64.0331 17.8365 62.0434 18.6627 59.9678 18.6652C57.8922 18.6627 55.9024 17.8362 54.4358 16.3674C52.9692 14.8986 52.1458 12.9076 52.1465 10.8319V10.8319Z" stroke="white" stroke-width="1.366"></path><path d="M46.5311 8.78516C46.4003 9.59754 46.3356 10.4099 46.3356 11.2223C46.3356 18.5351 52.2429 24.4477 59.5134 24.4477C60.3244 24.4477 61.1038 24.3526 61.9149 24.2231V50.4466C61.9149 61.4673 55.4237 67.9994 44.3885 67.9994H20.4053C9.36615 67.9994 2.875 61.4673 2.875 50.4466V26.4C2.875 15.3503 9.36615 8.78516 20.4053 8.78516H46.5311ZM39.6489 44.4667L49.0303 32.3483L48.8996 32.413C49.4187 31.697 49.5164 30.7882 49.1598 29.9758C48.989 29.5818 48.7153 29.241 48.3673 28.9892C48.0194 28.7375 47.61 28.5841 47.1823 28.5453C46.7481 28.499 46.3093 28.5678 45.9101 28.7447C45.5108 28.9216 45.1651 29.2004 44.9076 29.5531L37.0559 39.7258L28.0616 32.6402C27.5359 32.2335 26.8728 32.0469 26.2122 32.1197C25.5651 32.22 24.9826 32.5688 24.5888 33.092L14.9855 45.608L14.7873 45.8999C14.2352 46.9368 14.4954 48.2697 15.4689 48.987C15.9233 49.2802 16.4095 49.4757 16.9616 49.4757C17.7119 49.5074 18.4226 49.1138 18.877 48.4995L27.0233 37.9993L36.2739 44.9581L36.5658 45.1496C37.0766 45.4227 37.6683 45.5039 38.2338 45.3787C38.7993 45.2534 39.3012 44.9299 39.6489 44.4667V44.4667Z" stroke="white" stroke-width="1.366"></path></g><path d="M52.1279 10.8213C52.1286 8.74767 52.9525 6.75908 54.4186 5.29252C55.8846 3.82597 57.873 3.0014 59.9466 3C62.0204 3.0014 64.0089 3.82592 65.4751 5.29244C66.9414 6.75897 67.7656 8.74754 67.7667 10.8213C67.7656 12.8951 66.9414 14.8837 65.4751 16.3502C64.0089 17.8168 62.0204 18.6413 59.9466 18.6427C57.8732 18.6413 55.8851 17.8169 54.4191 16.3506C52.953 14.8844 52.129 12.8961 52.1279 10.8227V10.8213Z" fill="#25FD1E" fill-opacity="0.6"></path><path fill-rule="evenodd" clip-rule="evenodd" d="M46.5139 8.77832C46.3849 9.58342 46.32 10.3975 46.3197 11.2128C46.3197 18.515 52.2244 24.4184 59.4922 24.4184C60.3033 24.4184 61.0827 24.3233 61.8937 24.1938V50.3817C61.8937 61.3865 55.4039 67.9093 44.3727 67.9093H20.3987C9.36351 67.9093 2.875 61.3865 2.875 50.3817V26.3681C2.875 15.3342 9.36351 8.77832 20.3987 8.77832H46.5139ZM39.6357 44.4096L49.0118 32.3071L48.8824 32.3731C49.137 32.0265 49.2953 31.6187 49.341 31.191C49.3867 30.7633 49.3183 30.3312 49.1426 29.9386C48.9714 29.5454 48.6976 29.2054 48.35 28.9542C48.0023 28.703 47.5936 28.5498 47.1665 28.5107C46.7324 28.4644 46.2937 28.5331 45.8945 28.7098C45.4953 28.8864 45.1495 29.1649 44.8918 29.5172L37.0427 39.6753L28.0523 32.6003C27.5267 32.1936 26.8636 32.007 26.203 32.0799C25.557 32.1776 24.9745 32.5316 24.5809 33.0508L14.9802 45.5496L14.782 45.8415C14.2312 46.8758 14.4914 48.2074 15.4637 48.9246C15.9181 49.2166 16.4042 49.4108 16.9563 49.4108C17.7053 49.4438 18.416 49.0501 18.8717 48.4372L27.014 37.9515L36.262 44.8997L36.554 45.0912C37.0645 45.3641 37.6557 45.4453 38.2209 45.3203C38.7861 45.1953 39.2879 44.8723 39.6357 44.4096V44.4096Z" fill="#25FD1E" fill-opacity="0.6"></path><defs><filter id="filter0_f_270_78" x="0.827766" y="0.952766" width="69.0105" height="69.0945" filterUnits="userSpaceOnUse" color-interpolation-filters="sRGB"><feGaussianBlur stdDeviation="0.341"></feGaussianBlur></filter><filter id="filter1_f_270_78" x="1.73638" y="1.86138" width="67.1933" height="67.2772" filterUnits="userSpaceOnUse" color-interpolation-filters="sRGB"><feGaussianBlur stdDeviation="0.228"></feGaussianBlur></filter></defs></svg>