<svg xmlns="http://www.w3.org/2000/svg" width="60" height="71" viewBox="0 0 60 71" fill="none"><g filter="url(#filter0_f_270_57)"><path d="M48.2422 20.5379V25.5217C53.8144 27.268 57.875 32.3351 57.875 38.3875V54.4328C57.875 61.9251 51.6919 68 44.0684 68H16.6869C9.05941 68 2.875 61.9251 2.875 54.4328V38.3875C2.875 32.3351 6.93957 27.268 12.5078 25.5217V20.5366C12.5407 10.8476 20.5289 3 30.3263 3C40.254 3 48.2422 10.8476 48.2422 20.5366V20.5379ZM30.3921 8.65355C37.065 8.65355 42.4897 13.9822 42.4897 20.5379V24.8203H18.2616V20.4745C18.2945 13.9491 23.7179 8.65223 30.3921 8.65223V8.65355ZM33.2519 49.9786C33.2519 51.5611 31.9695 52.8213 30.3592 52.8213C29.9851 52.8241 29.6141 52.7526 29.2676 52.6111C28.9211 52.4695 28.6059 52.2607 28.3401 51.9965C28.0744 51.7323 27.8633 51.4181 27.719 51.0718C27.5747 50.7255 27.5001 50.354 27.4994 49.9786V42.8087C27.4994 41.2592 28.7805 39.9991 30.3592 39.9991C31.9695 39.9991 33.2519 41.2592 33.2519 42.8087V49.9786Z" stroke="url(#paint0_radial_270_57)" stroke-width="2.731"></path></g><g filter="url(#filter1_f_270_57)"><path d="M48.2422 20.5379V25.5217C53.8144 27.268 57.875 32.3351 57.875 38.3875V54.4328C57.875 61.9251 51.6919 68 44.0684 68H16.6869C9.05941 68 2.875 61.9251 2.875 54.4328V38.3875C2.875 32.3351 6.93957 27.268 12.5078 25.5217V20.5366C12.5407 10.8476 20.5289 3 30.3263 3C40.254 3 48.2422 10.8476 48.2422 20.5366V20.5379ZM30.3921 8.65355C37.065 8.65355 42.4897 13.9822 42.4897 20.5379V24.8203H18.2616V20.4745C18.2945 13.9491 23.7179 8.65223 30.3921 8.65223V8.65355ZM33.2519 49.9786C33.2519 51.5611 31.9695 52.8213 30.3592 52.8213C29.9851 52.8241 29.6141 52.7526 29.2676 52.6111C28.9211 52.4695 28.6059 52.2607 28.3401 51.9965C28.0744 51.7323 27.8633 51.4181 27.719 51.0718C27.5747 50.7255 27.5001 50.354 27.4994 49.9786V42.8087C27.4994 41.2592 28.7805 39.9991 30.3592 39.9991C31.9695 39.9991 33.2519 41.2592 33.2519 42.8087V49.9786Z" stroke="white" stroke-width="1.366"></path></g><path fill-rule="evenodd" clip-rule="evenodd" d="M48.2251 20.5134V25.4907C53.7959 27.2343 57.8539 32.2947 57.8539 38.3393V54.3608C57.8539 61.8425 51.6735 67.9095 44.0526 67.9095H16.6816C9.05809 67.9095 2.875 61.8425 2.875 54.3608V38.3393C2.875 32.2947 6.93693 27.2343 12.5051 25.4907V20.5134C12.5367 10.839 20.5237 3.00195 30.3158 3.00195C40.2395 3.00195 48.2251 10.839 48.2251 20.5134V20.5134ZM30.3816 8.64626C37.0532 8.64626 42.4752 13.9669 42.4752 20.5134V24.7906H18.255V20.4487C18.288 13.9352 23.71 8.64626 30.3816 8.64626V8.64626ZM33.2401 49.9132C33.2401 51.4931 31.959 52.7519 30.3487 52.7519C29.975 52.7547 29.6044 52.6834 29.2582 52.5421C28.912 52.4007 28.5971 52.1922 28.3315 51.9284C28.0659 51.6647 27.8548 51.3509 27.7104 51.005C27.5661 50.6592 27.4912 50.2882 27.4902 49.9132V42.7538C27.4902 41.2057 28.7713 39.9482 30.3487 39.9482C31.959 39.9482 33.2401 41.2057 33.2401 42.7538V49.9132Z" fill="#D01E52" fill-opacity="0.6"></path><defs><filter id="filter0_f_270_57" x="0.827766" y="0.952766" width="59.0945" height="69.0945" filterUnits="userSpaceOnUse" color-interpolation-filters="sRGB"><feGaussianBlur stdDeviation="0.341"></feGaussianBlur></filter><filter id="filter1_f_270_57" x="1.73638" y="1.86138" width="57.2772" height="67.2772" filterUnits="userSpaceOnUse" color-interpolation-filters="sRGB"><feGaussianBlur stdDeviation="0.228"></feGaussianBlur></filter><radialGradient id="paint0_radial_270_57" cx="0" cy="0" r="1" gradientUnits="userSpaceOnUse" gradientTransform="translate(26.9991 3.00132) rotate(82.4651) scale(56.7798 48.3729)"><stop stop-color="#FF5555"></stop><stop offset="1" stop-color="#D800B9"></stop></radialGradient></defs></svg>