<svg width="70" height="65" viewBox="0 0 70 65" fill="none" xmlns="http://www.w3.org/2000/svg">
<path d="M34.1001 0.67782L10.5334 6.94006C1.94555 9.22253 -1.61748 15.3408 0.683767 23.8579L6.99166 47.2055C9.29291 55.7226 15.4627 59.2541 24.0506 56.9726L47.6173 50.7094C56.2052 48.4279 59.7448 42.3148 57.4436 33.7987L51.1357 10.4501C48.8355 1.93292 42.688 -1.60465 34.1001 0.67782Z" fill="url(#paint0_linear_257_365)"/>
<path d="M54.589 11.6924H30.1929C21.3026 11.6924 16.2656 16.6883 16.2656 25.5057V49.6774C16.2656 58.4938 21.3026 63.4897 30.1929 63.4897H54.589C63.4794 63.4897 68.493 58.4938 68.493 49.6774V25.5047C68.493 16.6883 63.4794 11.6934 54.589 11.6934V11.6924Z" fill="#00F9E0" fill-opacity="0.35"/>
<path d="M54.5888 11.1814H30.1927C25.6551 11.1814 22.0312 12.4579 19.5391 14.9293C17.047 17.4007 15.7578 20.9986 15.7578 25.5053V49.677C15.7578 54.1827 17.047 57.7816 19.5391 60.253C22.0312 62.7244 25.6551 63.9999 30.1927 63.9999H54.5888C59.1263 63.9999 62.7462 62.7234 65.2312 60.252C67.7182 57.7806 69.0003 54.1817 69.0003 49.677V25.5043C69.0003 21.0006 67.7182 17.4007 65.2312 14.9293C62.7462 12.4579 59.1263 11.1814 54.5888 11.1814Z" stroke="url(#paint1_linear_257_365)" stroke-linecap="round" stroke-linejoin="round"/>
<mask id="mask0_257_365" style="mask-type:alpha" maskUnits="userSpaceOnUse" x="28" y="22" width="29" height="31">
<path fill-rule="evenodd" clip-rule="evenodd" d="M42.4764 22.2825C41.905 22.2825 41.3569 22.5103 40.9522 22.9162C40.5474 23.322 40.3191 23.8726 40.3172 24.4475V50.7363C40.3172 51.9107 41.2918 52.8768 42.4764 52.8768C43.6833 52.8768 44.6589 51.9107 44.6589 50.7363V24.4475C44.6589 23.2506 43.6833 22.2835 42.4764 22.2835V22.2825ZM30.29 30.7792C29.7188 30.7792 29.1708 31.0069 28.7661 31.4125C28.3614 31.8181 28.133 32.3685 28.1309 32.9432V50.7383C28.1309 51.9127 29.1054 52.8788 30.29 52.8788C31.497 52.8788 32.4715 51.9117 32.4715 50.7383V32.9422C32.4715 31.7453 31.497 30.7771 30.289 30.7771L30.29 30.7792ZM52.3179 42.3355C52.3179 41.1386 53.2924 40.1705 54.5004 40.1705C55.684 40.1705 56.6585 41.1386 56.6585 42.3355V50.7383C56.6585 51.9127 55.684 52.8788 54.476 52.8788C53.2934 52.8788 52.3179 51.9117 52.3179 50.7383V42.3355Z" fill="white"/>
</mask>
<g mask="url(#mask0_257_365)">
<path fill-rule="evenodd" clip-rule="evenodd" d="M42.4764 22.2825C41.905 22.2825 41.3569 22.5103 40.9522 22.9162C40.5474 23.322 40.3191 23.8726 40.3172 24.4475V50.7363C40.3172 51.9107 41.2918 52.8768 42.4764 52.8768C43.6833 52.8768 44.6589 51.9107 44.6589 50.7363V24.4475C44.6589 23.2506 43.6833 22.2835 42.4764 22.2835V22.2825ZM30.29 30.7792C29.7188 30.7792 29.1708 31.0069 28.7661 31.4125C28.3614 31.8181 28.133 32.3685 28.1309 32.9432V50.7383C28.1309 51.9127 29.1054 52.8788 30.29 52.8788C31.497 52.8788 32.4715 51.9117 32.4715 50.7383V32.9422C32.4715 31.7453 31.497 30.7771 30.289 30.7771L30.29 30.7792ZM52.3179 42.3355C52.3179 41.1386 53.2924 40.1705 54.5004 40.1705C55.684 40.1705 56.6585 41.1386 56.6585 42.3355V50.7383C56.6585 51.9127 55.684 52.8788 54.476 52.8788C53.2934 52.8788 52.3179 51.9117 52.3179 50.7383V42.3355Z" fill="url(#paint2_linear_257_365)"/>
<path d="M40.7231 24.4473C40.7231 23.4771 41.5139 22.6908 42.4762 22.6908V21.8738C41.7971 21.8738 41.1457 22.1447 40.6648 22.6271C40.184 23.1095 39.9129 23.7641 39.911 24.4473H40.7231ZM40.7231 50.7361V24.4473H39.911V50.7371H40.7231V50.7361ZM42.4762 52.4691C41.5108 52.4691 40.7231 51.6787 40.7231 50.7361H39.911C39.911 52.1413 41.0733 53.2851 42.4762 53.2851V52.4681V52.4691ZM44.2526 50.7361C44.2526 51.6756 43.4669 52.4691 42.4762 52.4691V53.2861C43.8983 53.2861 45.0647 52.1443 45.0647 50.7361H44.2526ZM44.2526 24.4463V50.7361H45.0647V24.4473H44.2526V24.4463ZM42.4762 22.6908C43.4639 22.6908 44.2526 23.4802 44.2526 24.4473H45.0647C45.0647 23.0176 43.9014 21.8738 42.4762 21.8738V22.6908ZM28.5367 32.942C28.5367 31.9728 29.3275 31.1854 30.2898 31.1854V30.3685C29.6107 30.3684 28.9593 30.6394 28.4784 31.1218C27.9976 31.6042 27.7265 32.2588 27.7246 32.942H28.5367ZM28.5367 50.7371V32.942H27.7246V50.7371H28.5367ZM30.2898 52.4691C29.3244 52.4691 28.5367 51.6797 28.5367 50.7371H27.7246C27.7246 52.1423 28.8869 53.2861 30.2898 53.2861V52.4691ZM32.0652 50.7371C32.0652 51.6766 31.2805 52.4691 30.2888 52.4691V53.2861C31.712 53.2861 32.8773 52.1454 32.8773 50.7371H32.0652ZM32.0652 32.942V50.7371H32.8773V32.942H32.0652ZM30.2888 31.1854C31.2775 31.1854 32.0652 31.9759 32.0652 32.942H32.8773C32.8773 31.5133 31.715 30.3685 30.2888 30.3685V31.1854ZM54.4991 39.7618C53.0739 39.7618 51.9116 40.9056 51.9116 42.3343H52.7237C52.7237 41.3682 53.5114 40.5778 54.5001 40.5778V39.7608L54.4991 39.7618ZM57.0643 42.3343C57.0624 41.6513 56.7915 40.9969 56.3108 40.5145C55.8302 40.0321 55.1791 39.7611 54.5001 39.7608V40.5778C55.4625 40.5778 56.2522 41.3652 56.2522 42.3343H57.0643ZM57.0643 50.7371V42.3343H56.2522V50.7371H57.0643ZM54.4758 53.2861C55.9 53.2861 57.0643 52.1443 57.0643 50.7371H56.2522C56.2522 51.6766 55.4675 52.4691 54.4758 52.4691V53.2861ZM51.9116 50.7371C51.9116 52.1423 53.0739 53.2861 54.4768 53.2861V52.4691C53.5124 52.4691 52.7237 51.6797 52.7237 50.7371H51.9116ZM51.9116 42.3343V50.7371H52.7237V42.3343H51.9116Z" fill="url(#paint3_linear_257_365)"/>
</g>
<defs>
<linearGradient id="paint0_linear_257_365" x1="4.62341" y1="24.871" x2="48.2826" y2="8.46304" gradientUnits="userSpaceOnUse">
<stop stop-color="#00F9E0"/>
<stop offset="1" stop-color="#0085FF"/>
</linearGradient>
<linearGradient id="paint1_linear_257_365" x1="24.5791" y1="17.7265" x2="57.5621" y2="58.9157" gradientUnits="userSpaceOnUse">
<stop stop-color="white" stop-opacity="0.25"/>
<stop offset="1" stop-color="white" stop-opacity="0"/>
</linearGradient>
<linearGradient id="paint2_linear_257_365" x1="20.7459" y1="44.9908" x2="33.9326" y2="72.3042" gradientUnits="userSpaceOnUse">
<stop stop-color="white"/>
<stop offset="1" stop-color="white" stop-opacity="0.2"/>
</linearGradient>
<linearGradient id="paint3_linear_257_365" x1="32.6723" y1="25.8464" x2="52.4312" y2="48.6658" gradientUnits="userSpaceOnUse">
<stop stop-color="white" stop-opacity="0.25"/>
<stop offset="1" stop-color="white" stop-opacity="0"/>
</linearGradient>
</defs>
</svg>
