<svg width="64" height="65" viewBox="0 0 64 65" fill="none" xmlns="http://www.w3.org/2000/svg">
<path d="M46.3162 0C36.5497 0 28.6323 7.835 28.6323 17.5C28.6323 27.164 36.5497 34.999 46.3162 34.999C56.0826 34.999 64 27.164 64 17.499C64 7.835 56.0826 0 46.3162 0ZM45.1613 14.144L49.0525 16.126C51.2608 17.25 52.4328 19.56 52.0384 22.006C51.7185 23.971 50.4409 25.514 48.6703 26.211V26.91C48.6703 28.06 47.7266 28.993 46.5647 28.993C46.0078 28.9938 45.4734 28.7749 45.0788 28.3843C44.6842 27.9938 44.4617 27.4635 44.4601 26.91V26.352C43.5131 26.0729 42.6389 25.5915 41.8987 24.9415C41.1584 24.2915 40.5699 23.4886 40.1744 22.589C40.0646 22.3379 40.0057 22.0677 40.0011 21.794C39.9965 21.5202 40.0464 21.2483 40.1478 20.9937C40.2492 20.7391 40.4002 20.507 40.5921 20.3105C40.7839 20.1141 41.013 19.9573 41.266 19.849C41.7774 19.6294 42.3555 19.6196 42.8741 19.8219C43.3928 20.0243 43.8099 20.4222 44.0345 20.929C44.2526 21.4216 44.6206 21.8339 45.0868 22.1076C45.5529 22.3814 46.0938 22.5029 46.6331 22.455L46.8242 22.432C47.6391 22.303 47.8353 21.631 47.8805 21.347C47.9208 21.101 47.9832 20.262 47.126 19.827L43.2378 17.845C42.1557 17.3004 41.2816 16.4201 40.7479 15.3374C40.2142 14.2548 40.05 13.0287 40.2801 11.845C40.6996 9.622 42.3092 7.985 44.4601 7.497V6.909C44.4601 5.759 45.4027 4.826 46.5647 4.826C47.7266 4.826 48.6703 5.759 48.6703 6.909V7.939C50.2051 8.62065 51.4293 9.84642 52.1038 11.377C52.2135 11.6281 52.2723 11.8983 52.2768 12.172C52.2813 12.4457 52.2314 12.7176 52.13 12.9721C52.0286 13.2267 51.8777 13.4588 51.6859 13.6553C51.4941 13.8517 51.2652 14.0086 51.0123 14.117C50.5007 14.337 49.9224 14.3469 49.4035 14.1445C48.8846 13.9422 48.4673 13.544 48.2427 13.037C48.0247 12.545 47.6571 12.1332 47.1916 11.8595C46.726 11.5858 46.186 11.4639 45.6472 11.511C44.7065 11.608 44.4772 12.313 44.4218 12.614C44.3715 12.86 44.286 13.699 45.1613 14.144ZM17.6838 30.001C7.91738 30.001 0 37.836 0 47.501C0 57.165 7.91738 65 17.6838 65C27.4503 65 35.3677 57.165 35.3677 47.5C35.3677 37.836 27.4523 30.001 17.6838 30.001ZM14.5632 42.33C15.7241 42.33 16.6677 43.263 16.6677 44.413C16.6677 45.563 15.7241 46.496 14.5621 46.496H14.1426V48.995H14.5632C15.7241 48.995 16.6677 49.928 16.6677 51.078C16.6677 52.228 15.7241 53.161 14.5621 53.161H14.1849C14.2864 53.8551 14.6358 54.4897 15.1693 54.9487C15.7028 55.4078 16.3847 55.6606 17.0903 55.661C18.715 55.661 20.0379 54.351 20.0379 52.743C20.0379 51.593 20.9816 50.66 22.1435 50.66C23.3055 50.66 24.2481 51.593 24.2481 52.743C24.2481 56.648 21.0369 59.827 17.0903 59.827C13.2875 59.827 10.199 56.87 9.97469 53.159H9.51192C8.95507 53.1598 8.42067 52.9409 8.02606 52.5503C7.63146 52.1598 7.40893 51.6295 7.40733 51.076C7.40733 49.926 8.34997 48.992 9.51192 48.992H9.93244V46.494H9.51192C8.9549 46.4948 8.42034 46.2757 8.02571 45.885C7.63108 45.4942 7.40866 44.9637 7.40733 44.41C7.40733 43.26 8.34997 42.327 9.51192 42.327H9.97469C10.199 38.619 13.2875 35.659 17.0903 35.659C21.0369 35.659 24.2481 38.835 24.2481 42.743C24.2481 43.893 23.3055 44.826 22.1435 44.826C21.5865 44.8271 21.0518 44.6083 20.657 44.2177C20.2622 43.8271 20.0395 43.2967 20.0379 42.743C20.035 41.968 19.7231 41.2258 19.1705 40.679C18.618 40.1322 17.8699 39.8255 17.0903 39.826C16.3848 39.8264 15.7031 40.0791 15.1696 40.5379C14.6361 40.9967 14.2866 41.6311 14.1849 42.325H14.5632V42.33Z" fill="url(#paint0_linear_257_361)"/>
<path d="M7.1057 29.4299C7.25057 29.4499 7.39141 29.4559 7.52219 29.4559C8.91452 29.4559 10.1459 28.4609 10.3562 27.0659C11.1046 22.0979 13.7917 17.7179 17.7856 14.7379C18.4043 14.2759 19.3027 14.5219 19.6508 15.2659L19.9928 15.1079L19.6508 15.2659C20.3268 16.7079 22.3942 16.7739 23.1678 15.3849L26.6939 9.04794C27.3197 7.92194 26.6627 6.53294 25.3941 6.25794L18.1639 4.67294C16.5965 4.33094 15.2585 5.88094 15.9436 7.34294C16.3208 8.15294 16.015 9.13294 15.2444 9.65494C9.56542 13.4999 5.70934 19.4439 4.6832 26.2579C4.45182 27.7929 5.54737 29.2079 7.1057 29.4289V29.4299Z" fill="white" fill-opacity="0.2" stroke="url(#paint1_linear_257_361)" stroke-width="0.75"/>
<path d="M44.5713 49.705L44.9084 49.535C45.3651 50.439 46.4737 50.727 47.2292 50.145C51.0873 47.173 53.7352 42.861 54.4666 38.015L54.8388 38.071L54.4666 38.017C54.6939 36.487 56.1466 35.42 57.719 35.658C59.2804 35.881 60.3719 37.295 60.1405 38.833C59.1043 45.689 55.1185 51.721 49.3711 55.554C48.7685 55.956 48.5461 56.724 48.859 57.343C49.5894 58.783 48.3027 60.375 46.7232 60.078L39.4497 58.71C38.1751 58.471 37.4719 57.105 38.0644 55.96L44.5713 49.705ZM44.5713 49.705L44.9084 49.535C44.1891 48.116 42.1177 48.109 41.3873 49.522L38.0644 55.96L44.5713 49.705Z" fill="white" fill-opacity="0.2" stroke="url(#paint2_linear_257_361)" stroke-width="0.75"/>
<defs>
<linearGradient id="paint0_linear_257_361" x1="4.33897" y1="19.831" x2="61.304" y2="14.4888" gradientUnits="userSpaceOnUse">
<stop stop-color="#00F9E0"/>
<stop offset="1" stop-color="#0085FF"/>
</linearGradient>
<linearGradient id="paint1_linear_257_361" x1="5.02927" y1="1.86294" x2="-1.8787" y2="25.5653" gradientUnits="userSpaceOnUse">
<stop stop-color="#FFA9F2" stop-opacity="0.516"/>
<stop offset="0.225" stop-color="#FFE4B4" stop-opacity="0.463"/>
<stop offset="1" stop-color="#CCE2FF" stop-opacity="0.21"/>
</linearGradient>
<linearGradient id="paint2_linear_257_361" x1="38.2294" y1="32.908" x2="31.5116" y2="56.3315" gradientUnits="userSpaceOnUse">
<stop stop-color="#FFA9F2" stop-opacity="0.516"/>
<stop offset="0.225" stop-color="#FFE4B4" stop-opacity="0.463"/>
<stop offset="1" stop-color="#CCE2FF" stop-opacity="0.21"/>
</linearGradient>
</defs>
</svg>
