<svg xmlns="http://www.w3.org/2000/svg" width="65" height="65" fill="none" viewBox="0 0 65 65">
    <path fill="#0076FE" d="M5.735 32.5c0-14.782 11.983-26.765 26.765-26.765S59.265 17.718 59.265 32.5 47.282 59.265 32.5 59.265 5.735 47.282 5.735 32.5z"/>
    <path fill="#fff" fill-rule="evenodd" stroke="#fff" stroke-width="1.2" d="M28.855 37.25l-3.986-4.257c-.444-.475-1.15-.475-1.595 0-.444.474-.444 1.228 0 1.702l4.773 5.096c.444.475 1.162.475 1.606 0l12.073-12.88c.444-.474.444-1.228 0-1.702-.444-.475-1.15-.475-1.595 0l-11.276 12.04z" clip-rule="evenodd"/>
</svg>
