<svg width="53" height="53" viewBox="0 0 53 53" fill="none" xmlns="http://www.w3.org/2000/svg">
<rect width="53" height="53" fill="white"/>
<path fill-rule="evenodd" clip-rule="evenodd" d="M48.2776 17.3018C48.2776 18.057 47.6685 18.6687 46.9165 18.6687H6.08313C5.33112 18.6687 4.72202 18.057 4.72202 17.3018V14.1486C4.72206 13.5789 5.07391 13.069 5.60504 12.8689L25.5436 5.17428C25.8516 5.05809 26.1757 5 26.4998 5C26.8239 5 27.148 5.05809 27.456 5.17428L47.3946 12.8689C47.9254 13.0688 48.2776 13.5788 48.2776 14.1486V17.3018ZM40.4148 14.5677L26.4991 9.19759L12.5835 14.5677H40.4148ZM49.6389 44.6388H48.2778V39.1713C48.2778 37.6618 46.8852 36.4376 45.1668 36.4376H42.8333V21.402H38.75V36.4376H33.3056V21.402H29.2222V36.4376H23.7778V21.402H19.6944V36.4376H14.25V21.402H10.1667V36.4376H7.83321C6.11481 36.4376 4.72222 37.6618 4.72222 39.1713V44.6388H3.36111C2.6091 44.6388 2 45.2504 2 46.0056V47.3725C2 48.1277 2.6091 48.7394 3.36111 48.7394H49.6389C50.3909 48.7394 51 48.1277 51 47.3725V46.0056C51 45.2504 50.3909 44.6388 49.6389 44.6388ZM8.80596 44.6391H44.1949V40.5385H8.80596V44.6391Z" fill="black"/>
</svg>
