<svg xmlns="http://www.w3.org/2000/svg" width="40" height="32" fill="none" viewBox="0 0 40 32">
    <path fill="#fff" fill-rule="evenodd" d="M38.144 29.412V26.52h-.724v1.682c-.242-.303-.586-.471-1.034-.471-.93 0-1.655.706-1.655 1.681 0 .975.724 1.681 1.655 1.681.482 0 .827-.168 1.034-.47v.403h.724v-1.614zm-21.37-1.614h1.172v.639h-1.171v1.445c0 .337.138.538.482.538.172 0 .414-.033.62-.168l.207.605c-.24.135-.586.236-.896.236-.827 0-1.137-.437-1.137-1.177v-1.48h-.655v-.638h.655v-.975h.724v.975zm-9.546 1.21v2.018h-.792v-1.782c0-.538-.242-.84-.724-.84-.448 0-.793.268-.793.84v1.782h-.724v-1.782c0-.538-.241-.84-.723-.84-.483 0-.793.268-.793.84v1.782h-.724v-3.228h.724v.403c.276-.37.62-.47.965-.47.517 0 .861.201 1.103.571.31-.437.758-.571 1.172-.571.827 0 1.31.504 1.31 1.277zm16.854-1.277c-.414 0-.69.201-.862.47v-.403h-.724v3.228h.724V29.21c0-.538.241-.84.69-.84.137 0 .31.033.448.067l.206-.673c-.137-.033-.344-.033-.482-.033zm-10.616 0c.517 0 1 .1 1.344.336l-.31.572c-.207-.101-.62-.27-1.034-.27-.38 0-.62.135-.62.37 0 .202.24.27.55.303l.345.034c.69.1 1.138.403 1.138.975 0 .605-.552 1.042-1.517 1.042-.517 0-1.034-.135-1.413-.404l.345-.538c.241.169.62.337 1.103.337.482 0 .758-.168.758-.404 0-.168-.207-.269-.586-.336l-.345-.034c-.723-.1-1.137-.403-1.137-.941 0-.639.551-1.042 1.379-1.042zm20.576 0c-.414 0-.69.201-.862.47v-.403h-.724v3.228h.724V29.21c0-.538.242-.84.69-.84.137 0 .31.033.448.067l.206-.673c-.138-.033-.344-.033-.482-.033zm-7.479 3.362c-1.068 0-1.758-.706-1.758-1.681 0-.975.69-1.681 1.758-1.681.483 0 .827.1 1.172.37l-.345.571c-.275-.202-.551-.303-.861-.303-.586.034-1 .438-1 1.043 0 .639.414 1.042 1 1.042.31 0 .586-.1.861-.303l.345.572c-.345.269-.69.37-1.172.37zm4.929-1.681v-1.614h-.724v.403c-.241-.302-.586-.47-1.034-.47-.93 0-1.654.706-1.654 1.68 0 .976.724 1.682 1.654 1.682.483 0 .827-.168 1.034-.47v.403h.724v-1.614zm-1.655-1.042c-.62 0-1 .47-1 1.042 0 .572.38 1.009 1 1.043.586 0 1-.471 1-1.043 0-.605-.414-1.042-1-1.042zm-9.65-.64c-.965 0-1.654.673-1.654 1.682 0 1.008.69 1.68 1.689 1.68.482 0 .965-.134 1.344-.436l-.345-.505c-.276.202-.62.337-.965.337-.448 0-.896-.202-1-.774h2.448v-.269c.034-1.042-.586-1.714-1.517-1.714zm.827 1.38c-.069-.505-.379-.774-.827-.774-.517 0-.827.336-.896.774h1.723zm15.476-.74c-.62 0-1 .47-1 1.042 0 .572.38 1.009 1 1.043.586 0 1-.471 1-1.043 0-.605-.414-1.042-1-1.042zm-25.195 1.042v-1.614h-.724v.403c-.241-.302-.586-.47-1.034-.47-.93 0-1.654.706-1.654 1.68 0 .976.723 1.682 1.654 1.682.482 0 .827-.168 1.034-.47v.403h.724v-1.614zM9.606 28.37c-.62 0-1 .47-1 1.042 0 .572.38 1.009 1 1.043.586 0 1-.471 1-1.043 0-.605-.414-1.042-1-1.042z" clip-rule="evenodd"/>
    <path fill="#FF5F00" d="M14.019 2.744H25.154V21.948999999999998H14.019z"/>
    <path fill="#EB001B" d="M14.999 12.346c0-3.944 1.808-7.442 4.587-9.705C17.543.995 14.966 0 12.153 0 5.49 0 .1 5.521.1 12.346c0 6.824 5.39 12.346 12.053 12.346 2.812 0 5.39-.995 7.433-2.641-2.78-2.23-4.587-5.761-4.587-9.705z"/>
    <path fill="#F79E1B" d="M40 12.346c0 6.824-5.39 12.346-12.052 12.346-2.813 0-5.391-.995-7.433-2.641 2.812-2.263 4.587-5.761 4.587-9.705s-1.808-7.442-4.587-9.705C22.557.995 25.135 0 27.948 0 34.61 0 40 5.556 40 12.346z"/>
</svg>
