<svg xmlns="http://www.w3.org/2000/svg" width="57" height="19" fill="none" viewBox="0 0 57 19">
    <path fill="url(#paint0_linear)" d="M29.254 5.931c-.032 2.545 2.268 3.965 4 4.809 1.78.866 2.378 1.421 2.371 2.196-.013 1.185-1.42 1.709-2.736 1.729-2.297.036-3.632-.62-4.693-1.116l-.827 3.871c1.065.49 3.037.919 5.082.938 4.8 0 7.94-2.37 7.957-6.044.02-4.662-6.449-4.92-6.405-7.005.016-.631.618-1.306 1.94-1.477.654-.087 2.46-.153 4.506.79l.804-3.746c-1.101-.4-2.516-.784-4.277-.784-4.518 0-7.697 2.401-7.722 5.84zM48.972.414c-.876 0-1.615.511-1.944 1.296L40.17 18.082h4.796l.955-2.637h5.862l.553 2.637h4.228L52.875.415h-3.903zm.671 4.773l1.385 6.635h-3.791l2.406-6.635zM23.438.414l-3.78 17.669h4.57L28.008.414h-4.57zm-6.762 0L11.92 12.44 9.994 2.215c-.226-1.142-1.117-1.8-2.108-1.8H.11L0 .926c1.597.347 3.41.906 4.51 1.503.672.366.864.685 1.085 1.553l3.645 14.1h4.83L21.477.413h-4.8z"/>
    <defs>
        <linearGradient id="paint0_linear" x1="26.005" x2="26.534" y1="18.724" y2="-.036" gradientUnits="userSpaceOnUse">
            <stop stop-color="#3C3E96"/>
            <stop offset="1" stop-color="#1355F7"/>
        </linearGradient>
    </defs>
</svg>
