<svg xmlns="http://www.w3.org/2000/svg" width="145" height="33" viewBox="0 0 145 33" fill="none"><path d="M16.3558 18.1495C16.3733 18.0236 16.3366 18.2719 16.3558 18.1495V18.1495Z" fill="url(#paint0_linear)"></path><path d="M29.252 5.80564L27.5965 18.6931H23.497C22.9638 18.6931 22.5286 18.5585 22.7121 17.7613L23.0478 16.4922L23.8572 13.4311C24.0529 12.6689 24.0757 12.0553 23.9166 11.5851L24.9445 7.06607L18.763 8.84744L18.506 10.3246L10.9347 10.3229L12.2214 0L5.1833 2.03486L4.15363 10.3229H0.762198L0 16.6495H3.38968L2.54183 23.2086C1.9492 28.1244 3.43164 32.0246 8.77402 32.0246C11.0624 32.0246 12.6724 31.3463 13.8594 30.4984L12.4609 25.2854C10.1725 26.6 8.98555 25.9217 9.4086 22.6999L10.1725 16.6495L19.7385 16.6355C21.6248 16.6355 22.3275 17.0061 22.5793 17.3225C22.7331 17.5166 22.7226 17.6949 22.7121 17.7578C22.7016 17.7491 22.3747 17.4973 21.1388 17.4869C20.3136 17.4816 19.0847 17.5848 17.2701 17.9414C16.9834 17.9991 16.6792 18.0638 16.361 18.1337C15.9432 20.6335 16.2002 23.511 20.8154 23.511L26.9794 23.6369L26.9934 23.5355L26.9811 23.6386L26.0354 31.3463H32.3462L35.7814 3.91763L29.252 5.80564Z" fill="url(#paint1_linear)"></path><path d="M47.2825 16.6495H52.7071L53.471 10.3229H48.0447L49.3314 0L42.2933 2.03486L41.2636 10.3229H37.8722L37.11 16.6495H40.4997L39.6518 23.2086C39.0592 28.1244 40.5416 32.0246 45.884 32.0246C48.1723 32.0246 49.7824 31.3463 50.9694 30.4984L49.5709 25.2854C47.2825 26.6 46.0955 25.9217 46.5186 22.6999L47.2825 16.6495Z" fill="#F9FAFB"></path><path d="M71.6501 9.64453L70.7184 17.1039C69.2342 16.6372 67.6241 16.6809 66.3532 17.1039C64.3603 17.7822 62.2415 19.859 61.8185 23.1648L60.843 31.3462H54.0619L56.6474 10.3228H63.4285L62.9618 14.0953C64.6977 11.1707 67.4528 9.89801 71.6501 9.64453Z" fill="#F9FAFB"></path><path d="M96.6576 10.3228L94.0721 31.3462H87.291L87.5445 29.2274C86.2299 30.7955 83.9835 32.0245 81.3979 32.0245C75.8021 32.0245 72.2009 27.023 72.9631 20.8345C73.727 14.646 78.5589 9.64453 84.153 9.64453C86.7386 9.64453 88.6878 10.8735 89.6213 12.4416L89.8748 10.3228H96.6576ZM88.5619 20.8345C88.9011 18.0375 87.2473 15.7474 84.7894 15.7474C82.3315 15.7474 80.0851 18.0357 79.7459 20.8345C79.4068 23.6333 81.0605 25.9217 83.5185 25.9217C85.9764 25.9217 88.2228 23.6316 88.5619 20.8345Z" fill="#F9FAFB"></path><path d="M122.672 0.842773L115.672 2.86714L114.518 12.4418C114.242 11.9803 113.879 11.5468 113.436 11.1657C112.38 10.2549 110.872 9.64476 109.05 9.64476C103.456 9.64476 98.6224 14.6463 97.8602 20.8347C97.098 27.0232 100.701 32.0247 106.295 32.0247C108.881 32.0247 111.127 30.7958 112.442 29.2259L112.186 31.3464H118.969L122.672 0.842773ZM108.414 25.9201C105.956 25.9201 104.304 23.6318 104.643 20.8347C104.982 18.0359 107.229 15.7476 109.687 15.7476C110.022 15.7476 110.344 15.7896 110.646 15.8717C111.548 16.113 112.291 16.6933 112.791 17.4923C113.244 18.2142 113.501 19.1128 113.503 20.104C113.503 20.3418 113.489 20.5865 113.459 20.8347C113.426 21.1092 113.373 21.3802 113.304 21.6441C112.676 24.0601 110.632 25.9201 108.414 25.9201Z" fill="#F9FAFB"></path><path d="M144.905 20.0725C144.819 20.9623 144.566 22.2769 144.227 23.0391H130.112C130.535 24.7349 131.892 25.9219 134.521 25.9219C136.047 25.9219 137.36 25.3712 138.547 24.5233L142.108 28.5074C140.115 30.4566 136.937 32.0264 133.546 32.0264C126.679 32.0264 122.695 27.025 123.457 20.8365C124.221 14.648 129.095 9.64648 135.792 9.64648C141.767 9.64474 145.667 13.7145 144.905 20.0725ZM130.621 18.6303H138.505C138.377 17.0202 137.404 15.7476 135.199 15.7476C132.782 15.7476 131.341 16.9346 130.621 18.6303Z" fill="#F9FAFB"></path><defs><linearGradient id="paint0_linear" x1="16.3508" y1="18.1488" x2="16.3583" y2="18.1492" gradientUnits="userSpaceOnUse"><stop stop-color="#25FD1E"></stop><stop offset="0.0505" stop-color="#23FD2A"></stop><stop offset="0.3942" stop-color="#14FE77"></stop><stop offset="0.6779" stop-color="#09FFB0"></stop><stop offset="0.8875" stop-color="#03FFD3"></stop><stop offset="1" stop-color="#00FFE0"></stop></linearGradient><linearGradient id="paint1_linear" x1="1.2019" y1="19.4166" x2="36.9637" y2="13.0666" gradientUnits="userSpaceOnUse"><stop stop-color="#25FD1E"></stop><stop offset="0.1553" stop-color="#1EFC43"></stop><stop offset="0.5231" stop-color="#0EFB97"></stop><stop offset="0.7833" stop-color="#04F9CC"></stop><stop offset="0.9099" stop-color="#00F9E0"></stop></linearGradient></defs></svg>