<svg xmlns="http://www.w3.org/2000/svg" width="368" height="174" viewBox="0 0 368 174" fill="none"><g opacity="0.6" filter="url(#filter0_f_280_465)"><path opacity="0.6" d="M298 50H70C58.9543 50 50 58.9543 50 70V104C50 115.046 58.9543 124 70 124H298C309.046 124 318 115.046 318 104V70C318 58.9543 309.046 50 298 50Z" fill="url(#paint0_linear_280_465)"></path></g><path d="M298 12H56C44.9543 12 36 20.9543 36 32V68C36 79.0457 44.9543 88 56 88H298C309.046 88 318 79.0457 318 68V32C318 20.9543 309.046 12 298 12Z" fill="url(#paint1_radial_280_465)" fill-opacity="0.8"></path><path d="M62.6999 70.7402H63.9799V69.1202C67.1399 68.9802 68.8599 67.0802 68.8599 64.9202C68.8599 61.8202 66.1199 61.2402 63.9799 60.6402V57.5402C64.5399 57.7402 64.9199 58.2002 64.9999 58.9402H68.6599C68.4799 56.4002 66.7199 55.0002 63.9799 54.7802V53.1602H62.6999V54.7802C59.9799 54.9602 57.8799 56.4402 57.8799 58.9402C57.8799 62.0802 60.5599 62.6802 62.6999 63.2402V66.4002C62.0199 66.1802 61.6199 65.6802 61.5399 64.8602H57.8999C57.9999 67.4402 59.9799 68.8602 62.6999 69.1002V70.7402ZM65.2799 65.0402C65.2799 65.7802 64.7799 66.3202 63.9799 66.4602V63.6202C64.7599 63.9202 65.2799 64.3202 65.2799 65.0402ZM61.4999 58.7802C61.4999 58.0002 61.9599 57.5602 62.6999 57.4402V60.2202C61.9799 59.9002 61.4999 59.4802 61.4999 58.7802ZM75.1822 68.8002H85.2222V66.0202H79.8222C82.1422 64.2402 85.0022 61.6802 85.0022 58.4802C85.0022 56.0202 83.5222 54.0802 80.2022 54.0802C77.5422 54.0802 75.2422 55.6002 75.1422 59.1402H78.4422C78.4422 57.7602 79.0422 56.9602 80.0622 56.9602C81.1022 56.9602 81.5822 57.6402 81.5822 58.7002C81.5822 61.1602 78.2822 63.7002 75.1822 66.2602V68.8002ZM90.688 67.3202C90.688 66.2602 89.868 65.4402 88.668 65.4402C87.448 65.4402 86.628 66.2602 86.628 67.3202C86.628 68.3402 87.448 69.1602 88.668 69.1602C89.868 69.1602 90.688 68.3402 90.688 67.3202ZM92.2526 68.8002H102.293V66.0202H96.8926C99.2126 64.2402 102.073 61.6802 102.073 58.4802C102.073 56.0202 100.593 54.0802 97.2726 54.0802C94.6126 54.0802 92.3126 55.6002 92.2126 59.1402H95.5126C95.5126 57.7602 96.1126 56.9602 97.1326 56.9602C98.1726 56.9602 98.6526 57.6402 98.6526 58.7002C98.6526 61.1602 95.3526 63.7002 92.2526 66.2602V68.8002ZM110.598 69.0002H114.018V66.4002H115.658V63.4402H114.018V54.6002H110.198L103.878 63.6402V66.4002H110.598V69.0002ZM107.478 63.4402L110.838 58.3602V63.4402H107.478ZM117.334 61.5002C117.334 65.8202 118.794 68.9402 122.954 68.9402C127.114 68.9402 128.574 65.8202 128.574 61.5002C128.574 57.2202 127.114 54.1002 122.954 54.1002C118.794 54.1002 117.334 57.2202 117.334 61.5002ZM125.214 61.5002C125.214 63.8202 124.974 65.7402 122.954 65.7402C120.934 65.7402 120.694 63.8202 120.694 61.5002C120.694 59.2602 120.934 57.3002 122.954 57.3002C124.974 57.3002 125.214 59.2602 125.214 61.5002ZM134.34 67.3202C134.34 66.2602 133.52 65.4402 132.32 65.4402C131.1 65.4402 130.28 66.2602 130.28 67.3202C130.28 68.3402 131.1 69.1602 132.32 69.1602C133.52 69.1602 134.34 68.3402 134.34 67.3202ZM136.965 54.3802V63.0802H140.265C140.445 62.4002 141.005 61.8802 141.965 61.8802C143.185 61.8802 143.845 62.5802 143.845 63.9002C143.845 65.1602 143.285 66.1002 141.985 66.1002C140.865 66.1002 140.285 65.4202 140.145 64.6602H136.805C136.925 67.1802 138.825 69.0002 142.105 69.0002C145.345 69.0002 147.145 67.0002 147.145 63.9202C147.145 61.5602 145.925 59.1402 142.745 59.1402C141.585 59.1402 140.585 59.5602 140.065 60.1402V57.3802H146.305V54.3802H136.965ZM149.973 54.3802V63.0802H153.273C153.453 62.4002 154.013 61.8802 154.973 61.8802C156.193 61.8802 156.853 62.5802 156.853 63.9002C156.853 65.1602 156.293 66.1002 154.993 66.1002C153.873 66.1002 153.293 65.4202 153.153 64.6602H149.813C149.933 67.1802 151.833 69.0002 155.113 69.0002C158.353 69.0002 160.153 67.0002 160.153 63.9202C160.153 61.5602 158.933 59.1402 155.753 59.1402C154.593 59.1402 153.593 59.5602 153.073 60.1402V57.3802H159.313V54.3802H149.973ZM162.561 64.7202C162.721 66.9602 164.261 69.0602 167.441 69.0602C171.361 69.0602 172.521 66.3002 172.521 61.3202C172.521 56.8802 171.361 54.0602 167.201 54.0602C164.101 54.0602 162.181 55.9802 162.181 58.9402C162.181 62.0402 164.101 63.6002 166.601 63.6002C167.841 63.6002 168.921 63.1202 169.501 62.3002C169.501 65.0802 169.001 66.3002 167.561 66.3002C166.501 66.3002 165.921 65.7402 165.721 64.7202H162.561ZM167.381 60.9002C166.041 60.9002 165.401 60.0802 165.401 58.9802C165.401 57.7602 166.121 57.0002 167.301 57.0002C168.461 57.0002 169.221 57.7002 169.221 59.0002C169.221 60.1802 168.501 60.9002 167.381 60.9002Z" fill="white"></path><path d="M63.5405 35.9998H64.6925L61.6805 27.6838H60.4205L57.3965 35.9998H58.5485L59.2205 34.1398H62.8685L63.5405 35.9998ZM62.5565 33.2518H59.5325L61.0445 29.0278L62.5565 33.2518ZM65.9864 32.9158C65.9864 35.0878 67.4024 36.0838 69.1304 36.0838C70.8584 36.0838 72.2864 35.0878 72.2864 32.9158V27.6358H71.1944V32.9278C71.1944 34.4638 70.3784 35.1238 69.1424 35.1238C67.9064 35.1238 67.0784 34.4638 67.0784 32.9278V27.6358H65.9864V32.9158ZM76.7121 27.6358H74.1081V35.9998H76.7121C79.4601 35.9998 81.1521 34.4278 81.1521 31.8358C81.1521 29.2438 79.4601 27.6358 76.7121 27.6358ZM75.2001 35.0998V28.5238H76.7121C78.8961 28.5238 80.0361 29.7958 80.0361 31.8358C80.0361 33.8758 78.8961 35.0998 76.7121 35.0998H75.2001ZM82.3045 38.0398H83.3845L86.6725 24.6958H85.5805L82.3045 38.0398ZM87.8915 31.8118C87.8915 34.3198 89.7275 36.0718 92.0675 36.0718C93.8795 36.0718 95.3195 35.1718 95.9435 33.5638H94.6355C94.1795 34.5598 93.2915 35.1238 92.0675 35.1238C90.3155 35.1238 89.0075 33.8518 89.0075 31.8118C89.0075 29.7598 90.3155 28.4878 92.0675 28.4878C93.2915 28.4878 94.1795 29.0518 94.6355 30.0598H95.9435C95.3195 28.4398 93.8795 27.5278 92.0675 27.5278C89.7275 27.5278 87.8915 29.3038 87.8915 31.8118ZM103.185 35.9998H104.337L101.325 27.6838H100.065L97.041 35.9998H98.193L98.865 34.1398H102.513L103.185 35.9998ZM102.201 33.2518H99.177L100.689 29.0278L102.201 33.2518ZM108.258 27.6358H105.654V35.9998H108.258C111.006 35.9998 112.698 34.4278 112.698 31.8358C112.698 29.2438 111.006 27.6358 108.258 27.6358ZM106.746 35.0998V28.5238H108.258C110.442 28.5238 111.582 29.7958 111.582 31.8358C111.582 33.8758 110.442 35.0998 108.258 35.0998H106.746Z" fill="white"></path><path d="M257.667 65.3332H259H260.333V67.3332V69.9999C260.333 70.3685 260.631 70.6665 261 70.6665H265C265.369 70.6665 265.667 70.3685 265.667 69.9999V66.6665V65.3332H266.333H268.333C268.59 65.3332 268.823 65.1859 268.934 64.9559C269.045 64.7245 269.014 64.4505 268.854 64.2499L263.521 57.5832C263.267 57.2665 262.733 57.2665 262.479 57.5832L257.146 64.2499C256.986 64.4505 256.955 64.7245 257.066 64.9559C257.177 65.1859 257.41 65.3332 257.667 65.3332Z" fill="white"></path><path d="M277.313 65.4583H279.406V64.6146H277.313V62.4167H276.469V64.6146H274.375V65.4583H276.469V67.6562H277.313V65.4583ZM280.677 62.6562H281.583C281.583 61.8125 282.281 61.1771 283.208 61.1771C284.068 61.1771 284.62 61.7656 284.62 62.5052C284.62 63.1302 284.385 63.5365 283.37 64.5937L280.724 67.3542V68H285.682V67.1667H282.01V67.1458L283.797 65.3125C285.177 63.8958 285.557 63.276 285.557 62.4479C285.557 61.3073 284.599 60.3594 283.208 60.3594C281.76 60.3594 280.677 61.3385 280.677 62.6562ZM287.979 63.9323C288.927 63.9323 289.557 63.224 289.557 62.1667C289.557 61.1042 288.927 60.3958 287.979 60.3958C287.031 60.3958 286.396 61.1042 286.396 62.1667C286.396 63.224 287.031 63.9323 287.979 63.9323ZM288.13 68L293.359 60.4844H292.516L287.276 68H288.13ZM287.979 63.3125C287.438 63.3125 287.073 62.8542 287.073 62.1667C287.073 61.4792 287.438 61.0208 287.979 61.0208C288.521 61.0208 288.88 61.4792 288.88 62.1667C288.88 62.8542 288.521 63.3125 287.979 63.3125ZM292.662 68.0833C293.609 68.0833 294.24 67.375 294.24 66.3177C294.24 65.2552 293.609 64.5469 292.662 64.5469C291.714 64.5469 291.078 65.2552 291.078 66.3177C291.078 67.375 291.714 68.0833 292.662 68.0833ZM292.662 67.4635C292.12 67.4635 291.755 67.0052 291.755 66.3177C291.755 65.6302 292.12 65.1719 292.662 65.1719C293.203 65.1719 293.563 65.6302 293.563 66.3177C293.563 67.0052 293.203 67.4635 292.662 67.4635Z" fill="white"></path><defs><filter id="filter0_f_280_465" x="0" y="0" width="368" height="174" filterUnits="userSpaceOnUse" color-interpolation-filters="sRGB"><feGaussianBlur stdDeviation="25"></feGaussianBlur></filter><linearGradient id="paint0_linear_280_465" x1="306.424" y1="50" x2="94.3669" y2="190.814" gradientUnits="userSpaceOnUse"><stop stop-color="#FD5356"></stop><stop offset="1" stop-color="#FF6EAA"></stop></linearGradient><radialGradient id="paint1_radial_280_465" cx="0" cy="0" r="1" gradientUnits="userSpaceOnUse" gradientTransform="translate(159.688 12) rotate(59.885) scale(76.0873 216.414)"><stop stop-color="#FF5555"></stop><stop offset="1" stop-color="#D800B9"></stop></radialGradient></defs></svg>