<svg width="51" height="65" viewBox="0 0 51 65" fill="none" xmlns="http://www.w3.org/2000/svg">
<path d="M0 28.8053C0 25.5944 0 23.989 0.49 22.7127C0.856083 21.76 1.41584 20.8948 2.13341 20.1725C2.85098 19.4503 3.71054 18.8868 4.657 18.5184C5.926 18.0251 7.52 18.0251 10.71 18.0251H40.29C43.48 18.0251 45.075 18.0251 46.343 18.5184C47.2893 18.887 48.1486 19.4504 48.866 20.1727C49.5834 20.895 50.143 21.7601 50.509 22.7127C51 23.989 51 25.5944 51 28.8053V44.6082H0V28.8053Z" fill="url(#paint0_radial_257_391)"/>
<path d="M12.7521 10H12.7511C9.73343 10 7.28711 12.4623 7.28711 15.4998V19.1667C7.28711 22.2041 9.73343 24.6665 12.7511 24.6665H12.7521C15.7698 24.6665 18.2161 22.2041 18.2161 19.1667V15.4998C18.2161 12.4623 15.7698 10 12.7521 10Z" fill="#FFB7B5" fill-opacity="0.6"/>
<path d="M18.0491 15.4997C18.0491 12.555 15.6775 10.168 12.7521 10.168C9.82663 10.168 7.45508 12.555 7.45508 15.4997V19.1655C7.45508 22.1102 9.82663 24.4972 12.7521 24.4972C15.6775 24.4972 18.0491 22.1102 18.0491 19.1655V15.4997Z" stroke="url(#paint1_linear_257_391)" stroke-width="0.335"/>
<path d="M38.2521 10H38.2511C35.2334 10 32.7871 12.4623 32.7871 15.4998V19.1667C32.7871 22.2041 35.2334 24.6665 38.2511 24.6665H38.2521C41.2698 24.6665 43.7161 22.2041 43.7161 19.1667V15.4998C43.7161 12.4623 41.2698 10 38.2521 10Z" fill="#FFB7B5" fill-opacity="0.6"/>
<path d="M43.5491 15.4997C43.5491 12.555 41.1775 10.168 38.2521 10.168C35.3266 10.168 32.9551 12.555 32.9551 15.4997V19.1655C32.9551 22.1102 35.3266 24.4972 38.2521 24.4972C41.1775 24.4972 43.5491 22.1102 43.5491 19.1655V15.4997Z" stroke="url(#paint2_linear_257_391)" stroke-width="0.335"/>
<path d="M0 40.0666C0 35.9599 0 33.9065 0.794 32.3373C1.49252 30.9574 2.6071 29.8356 3.978 29.1325C5.537 28.3333 7.577 28.3333 11.658 28.3333H39.343C43.423 28.3333 45.463 28.3333 47.022 29.1325C48.3929 29.8356 49.5075 30.9574 50.206 32.3373C51 33.9065 51 35.9599 51 40.0676V47.4004C51 53.5605 51 56.6405 49.809 58.9948C48.7612 61.0647 47.0893 62.7475 45.033 63.8021C42.695 64.9999 39.635 64.9999 33.514 64.9999H17.486C11.366 64.9999 8.305 64.9999 5.967 63.8021C3.91061 62.7475 2.23873 61.0647 1.191 58.9948C0 56.6415 0 53.5615 0 47.4004V40.0666Z" fill="#FFB7B5" fill-opacity="0.6"/>
<path d="M11.657 28.5012H39.343C41.386 28.5012 42.908 28.5012 44.114 28.6019C45.319 28.7005 46.194 28.8978 46.946 29.2833C48.2849 29.9701 49.3736 31.0659 50.056 32.4137C50.44 33.1706 50.636 34.0513 50.734 35.2642C50.832 36.4781 50.833 38.0101 50.833 40.0665V47.4002C50.833 50.4833 50.833 52.7853 50.684 54.6112C50.536 56.435 50.241 57.7687 49.66 58.9182C48.6281 60.9561 46.9818 62.6128 44.957 63.651C43.815 64.2368 42.49 64.5338 40.678 64.6827C38.865 64.8317 36.578 64.8317 33.514 64.8317H17.486C14.423 64.8317 12.136 64.8317 10.321 64.6827C8.50897 64.5338 7.18397 64.2368 6.04297 63.651C4.01832 62.6131 2.37203 60.9567 1.33997 58.9192C0.759969 57.7687 0.463969 56.435 0.315969 54.6112C0.167969 52.7853 0.167969 50.4843 0.167969 47.4002V40.0665C0.167969 38.0101 0.167969 36.4781 0.265969 35.2642C0.364969 34.0513 0.559969 33.1706 0.942969 32.4137C1.62559 31.0658 2.71462 29.97 4.05397 29.2833C4.80597 28.8978 5.68097 28.6995 6.88597 28.6009C8.09197 28.5022 9.61397 28.5022 11.657 28.5022V28.5012Z" stroke="url(#paint3_linear_257_391)" stroke-width="0.335"/>
<path d="M36.4254 41.1669V41.1659C36.4254 40.1536 35.6101 39.333 34.6044 39.333H16.3894C15.3837 39.333 14.5684 40.1536 14.5684 41.1659V41.1669C14.5684 42.1792 15.3837 42.9999 16.3894 42.9999H34.6044C35.6101 42.9999 36.4254 42.1792 36.4254 41.1669Z" fill="url(#paint4_linear_257_391)" fill-opacity="0.9"/>
<path d="M36.2921 41.1671V41.1661C36.2921 40.2283 35.5368 39.468 34.6051 39.468H16.3901C15.4584 39.468 14.7031 40.2283 14.7031 41.1661V41.1671C14.7031 42.1049 15.4584 42.8651 16.3901 42.8651H34.6051C35.5368 42.8651 36.2921 42.1049 36.2921 41.1671Z" stroke="url(#paint5_linear_257_391)" stroke-width="0.268"/>
<path d="M36.4254 52.1674V52.1664C36.4254 51.1541 35.6101 50.3335 34.6044 50.3335H16.3894C15.3837 50.3335 14.5684 51.1541 14.5684 52.1664V52.1674C14.5684 53.1797 15.3837 54.0004 16.3894 54.0004H34.6044C35.6101 54.0004 36.4254 53.1797 36.4254 52.1674Z" fill="url(#paint6_linear_257_391)" fill-opacity="0.9"/>
<path d="M36.2921 52.1676V52.1666C36.2921 51.2288 35.5368 50.4685 34.6051 50.4685H16.3901C15.4584 50.4685 14.7031 51.2288 14.7031 52.1666V52.1676C14.7031 53.1054 15.4584 53.8656 16.3901 53.8656H34.6051C35.5368 53.8656 36.2921 53.1054 36.2921 52.1676Z" stroke="url(#paint7_linear_257_391)" stroke-width="0.268"/>
<defs>
<radialGradient id="paint0_radial_257_391" cx="0" cy="0" r="1" gradientUnits="userSpaceOnUse" gradientTransform="translate(22.3693 18.0246) rotate(73.3062) scale(24.0349 43.3391)">
<stop stop-color="#FF5555"/>
<stop offset="1" stop-color="#D800B9"/>
</radialGradient>
<linearGradient id="paint1_linear_257_391" x1="6.74108" y1="11.0477" x2="18.2125" y2="24.1019" gradientUnits="userSpaceOnUse">
<stop stop-color="white"/>
<stop offset="0.766" stop-color="white" stop-opacity="0"/>
</linearGradient>
<linearGradient id="paint2_linear_257_391" x1="32.2411" y1="11.0477" x2="43.7125" y2="24.1019" gradientUnits="userSpaceOnUse">
<stop stop-color="white"/>
<stop offset="0.766" stop-color="white" stop-opacity="0"/>
</linearGradient>
<linearGradient id="paint3_linear_257_391" x1="-2.55003" y1="30.9522" x2="19.7383" y2="78.2984" gradientUnits="userSpaceOnUse">
<stop stop-color="white"/>
<stop offset="0.766" stop-color="white" stop-opacity="0"/>
</linearGradient>
<linearGradient id="paint4_linear_257_391" x1="39.0044" y1="45.7488" x2="18.2173" y2="41.0854" gradientUnits="userSpaceOnUse">
<stop stop-color="white" stop-opacity="0"/>
<stop offset="0.979" stop-color="white"/>
</linearGradient>
<linearGradient id="paint5_linear_257_391" x1="36.4261" y1="41.4358" x2="14.5681" y2="41.4358" gradientUnits="userSpaceOnUse">
<stop stop-color="white" stop-opacity="0"/>
<stop offset="1" stop-color="white"/>
</linearGradient>
<linearGradient id="paint6_linear_257_391" x1="36.6594" y1="55.1921" x2="19.2283" y2="51.8614" gradientUnits="userSpaceOnUse">
<stop stop-color="white" stop-opacity="0"/>
<stop offset="0.979" stop-color="white"/>
</linearGradient>
<linearGradient id="paint7_linear_257_391" x1="36.4261" y1="52.4363" x2="14.5681" y2="52.4363" gradientUnits="userSpaceOnUse">
<stop stop-color="white" stop-opacity="0"/>
<stop offset="1" stop-color="white"/>
</linearGradient>
</defs>
</svg>
