<svg width="58" height="65" viewBox="0 0 58 65" fill="none" xmlns="http://www.w3.org/2000/svg">
<path fill-rule="evenodd" clip-rule="evenodd" d="M31.9989 33.326C31.9994 33.1518 31.9664 32.9791 31.9019 32.818C31.8374 32.657 31.7428 32.5106 31.6233 32.3874C31.5038 32.2641 31.3619 32.1665 31.2057 32.1C31.0495 32.0335 30.8821 31.9996 30.7131 32L9.66607 32.0436C8.52014 32.0458 7.94552 33.4747 8.7554 34.31L14.1795 39.905L0.756382 53.7472C0.516989 53.9934 0.326975 54.2858 0.197193 54.6078C0.0674111 54.9298 0.000404547 55.275 1.82618e-06 55.6236C-0.000400895 55.9723 0.0658081 56.3176 0.194846 56.6398C0.323883 56.9621 0.513222 57.255 0.752045 57.5019L7.27116 64.225C7.75442 64.7221 8.40932 65.0009 9.09189 65C9.77434 64.9992 10.4287 64.7188 10.9108 64.2206L24.3338 50.3772L29.7591 55.9723C30.5679 56.8064 31.9545 56.2138 31.9567 55.0331L32 33.326H31.9989Z" fill="url(#paint0_radial_257_392)"/>
<path d="M24.0011 39.2957C24.0005 39.5194 24.0441 39.741 24.1294 39.9478C24.2146 40.1546 24.3398 40.3426 24.4979 40.5009C24.6559 40.6592 24.8436 40.7848 25.0502 40.8705C25.2569 40.9561 25.4784 41.0001 25.7021 41L46.8699 40.9564C48.3856 40.9542 49.1478 39.1212 48.0748 38.0483L47.2462 37.2197C46.6765 36.6501 46.2245 35.9739 45.9161 35.2296C45.6079 34.4854 45.4491 33.6877 45.4491 32.8821C45.4491 32.0765 45.6079 31.2789 45.9161 30.5346C46.2245 29.7904 46.6765 29.1142 47.2462 28.5446L56.1198 19.67C56.3985 19.3921 56.6196 19.0619 56.7706 18.6984C56.9217 18.335 56.9996 17.9454 57 17.5518C57.0004 17.1582 56.9233 16.7684 56.7729 16.4046C56.6227 16.0409 56.4022 15.7103 56.1241 15.4317L49.5665 8.87529C49.004 8.31403 48.2416 7.99919 47.447 8C46.6523 8.00082 45.8906 8.31723 45.3293 8.87965L36.4545 17.7531C35.3043 18.903 33.7445 19.549 32.118 19.549C30.4916 19.549 28.9318 18.903 27.7815 17.7531L26.9518 16.9245C25.8787 15.8515 24.0458 16.6148 24.0425 18.1282L24 39.2957H24.0011Z" fill="white" fill-opacity="0.2" stroke="url(#paint1_linear_257_392)" stroke-width="0.75"/>
<defs>
<radialGradient id="paint0_radial_257_392" cx="0" cy="0" r="1" gradientUnits="userSpaceOnUse" gradientTransform="translate(30.2216 30.943) rotate(126.787) scale(34.7712 28.7241)">
<stop stop-color="#00F9E0"/>
<stop offset="1" stop-color="#25FD1E"/>
</radialGradient>
<linearGradient id="paint1_linear_257_392" x1="32.6479" y1="55.3079" x2="68.1248" y2="36.8331" gradientUnits="userSpaceOnUse">
<stop stop-color="#FFA9F2" stop-opacity="0.516"/>
<stop offset="0.225" stop-color="#FFE4B4" stop-opacity="0.463"/>
<stop offset="1" stop-color="#CCE2FF" stop-opacity="0.21"/>
</linearGradient>
</defs>
</svg>
