<?xml version="1.0" encoding="UTF-8"?>
<svg width="69px" height="19px" viewBox="0 0 69 19" version="1.1" xmlns="http://www.w3.org/2000/svg" xmlns:xlink="http://www.w3.org/1999/xlink">
    <!-- Generator: Sketch 50.2 (55047) - http://www.bohemiancoding.com/sketch -->
    <title>wink</title>
    <desc>Created with Sketch.</desc>
    <defs></defs>
    <g id="Page-1" stroke="none" stroke-width="1" fill="none" fill-rule="evenodd">
        <g id="eye-off" transform="translate(45.000000, 0.000000)" fill="#999999" fill-rule="nonzero">
            <path d="M11.8145455,6 L15.2727273,9.16 C15.2727273,9.11 15.2727273,9.05 15.2727273,9 C15.2727273,7.34314575 13.8074773,6 12,6 C11.9345455,6 11.88,6 11.8145455,6 Z M7.12363636,6.8 L8.81454545,8.35 C8.76,8.56 8.72727273,8.77 8.72727273,9 C8.72727273,10.6568542 10.1925226,12 12,12 C12.24,12 12.48,11.97 12.7090909,11.92 L14.4,13.47 C13.6690909,13.8 12.8618182,14 12,14 C8.98753773,14 6.54545455,11.7614237 6.54545455,9 C6.54545455,8.21 6.76363636,7.47 7.12363636,6.8 Z M1.09090909,1.27 L3.57818182,3.55 L4.06909091,4 C2.26909091,5.3 0.850909091,7 0,9 C1.88727273,13.39 6.54545455,16.5 12,16.5 C13.6909091,16.5 15.3054545,16.2 16.7781818,15.66 L17.2472727,16.08 L20.4327273,19 L21.8181818,17.73 L2.47636364,0 L1.09090909,1.27 Z M12,4 C15.0124622,4 17.4545455,6.23857625 17.4545455,9 C17.4545455,9.64 17.3127273,10.26 17.0618182,10.82 L20.2581818,13.75 C21.8945455,12.5 23.2036364,10.86 24,9 C22.1127273,4.61 17.4545455,1.5 12,1.5 C10.4727273,1.5 9.01090909,1.75 7.63636364,2.2 L10.0036364,4.35 C10.6254545,4.13 11.2909091,4 12,4 Z" id="Shape"></path>
        </g>
        <g id="Eye-on" transform="translate(0.000000, 1.000000)" fill="#999999" fill-rule="nonzero">
            <path d="M13,0.5 C7.09090909,0.5 2.04454545,3.61 0,8 C2.04454545,12.39 7.09090909,15.5 13,15.5 C18.9090909,15.5 23.9554545,12.39 26,8 C23.9554545,3.61 18.9090909,0.5 13,0.5 Z M13,13 C9.73818182,13 7.09090909,10.76 7.09090909,8 C7.09090909,5.24 9.73818182,3 13,3 C16.2618182,3 18.9090909,5.24 18.9090909,8 C18.9090909,10.76 16.2618182,13 13,13 Z M13,5 C11.0381818,5 9.45454545,6.34 9.45454545,8 C9.45454545,9.66 11.0381818,11 13,11 C14.9618182,11 16.5454545,9.66 16.5454545,8 C16.5454545,6.34 14.9618182,5 13,5 Z"></path>
        </g>
    </g>
</svg>