<svg xmlns="http://www.w3.org/2000/svg" width="65" height="65" viewBox="0 0 65 65" fill="none"><path opacity="0.7" d="M0 32.5C0 14.5507 14.5507 0 32.5 0C50.4493 0 65 14.5507 65 32.5C65 50.4493 50.4493 65 32.5 65C14.5507 65 0 50.4493 0 32.5Z" fill="#70737A" fill-opacity="0.8"></path><path d="M34 25.362L36.8996 28.0578C37.4548 28.574 38.3145 28.5732 38.8686 28.0559C39.4805 27.4849 39.4805 26.5151 38.8686 25.9441L33.8646 21.2737C33.0962 20.5565 31.9038 20.5565 31.1354 21.2737L26.1314 25.9441C25.5195 26.5151 25.5195 27.4849 26.1314 28.0559C26.6855 28.5732 27.5452 28.574 28.1004 28.0578L31 25.362L31 46.5C31 47.3284 31.6716 48 32.5 48C33.3284 48 34 47.3284 34 46.5L34 25.362Z" fill="white"></path></svg>